<?xml version="1.0" standalone="no"?>
  <!DOCTYPE svg PUBLIC "-//W3C//DTD SVG 1.1//EN" "http://www.w3.org/Graphics/SVG/1.1/DTD/svg11.dtd" >
  <svg>
  <metadata>
  Created by font-carrier
  </metadata>
  <defs>
  <font id="AmalteaTwo" horiz-adv-x="1471" vert-adv-y="1471" >
    <font-face
      
      font-family="Amaltea Two"
      
      font-weight="400"
      
      font-stretch="normal"
      
      units-per-em="1000"
      
      ascent="1000"
      
      descent="-314"
      
    />
      <missing-glyph />

      

      
      <glyph glyph-name="uni21" unicode="&#x21;" d="M105 177L82 627Q80 674 73 706Q66 738 50 751L50 759L95 760L171 760L216 759L216 751Q200 738 193 706Q186 674 184 627L162 176L105 177M133-10Q110-10 95.50 3.50Q81 17 81 42Q81 67 95.50 80Q110 93 133 93Q156 93 170.50 80Q185 67 185 42Q185 17 170.50 3.50Q156-10 133-10Z"  horiz-adv-x="266" vert-adv-y="1000"  />

      
      <glyph glyph-name="uni22" unicode="&#x22;" d="M51 504L51 511Q62 524 67.50 559Q73 594 73 631Q73 669 68 704Q63 739 52 753L52 760L168 760L168 753Q157 739 151.50 704.50Q146 670 146 632Q146 594 151 558.50Q156 523 167 510L167 504L51 504M215 511Q226 524 231.50 559Q237 594 237 631Q237 669 232 704Q227 739 216 753L216 760L332 760L332 753Q321 739 315.50 704.50Q310 670 310 632Q310 594 315 558.50Q320 523 331 510L331 504L215 504L215 511Z"  horiz-adv-x="383" vert-adv-y="1000"  />

      
      <glyph glyph-name="uni23" unicode="&#x23;" d="M495 345L447 209L571 209L552 156L428 156L373 0L305 0L360 156L247 156L192 0L124 0L179 156L51 156L70 209L198 209L246 345L111 345L130 398L264 398L318 550L386 550L332 398L445 398L499 550L567 550L513 398L631 398L612 345L495 345M427 345L314 345L266 209L379 209L427 345Z"  horiz-adv-x="682" vert-adv-y="1000"  />

      
      <glyph glyph-name="uni24" unicode="&#x24;" d="M379 166Q379 104 343.50 61Q308 18 253 0L253-83L179-83L179-10Q136-9 111.50 2Q87 13 74 13Q63 13 55 0L47 0L42 141L51 140Q55 129 67 116.50Q79 104 96 93.50Q113 83 135 76Q157 69 182 69Q207 69 226.50 76.50Q246 84 259 97Q272 110 279 126Q286 142 286 159Q286 180 275.50 195Q265 210 248 221Q231 232 209 241.50Q187 251 164 261Q139 272 117 286.50Q95 301 78.50 319.50Q62 338 52.50 362Q43 386 43 416Q43 472 79.50 509.50Q116 547 188 557L188 655L255 655L255 559Q280 557 294.50 554Q309 551 320 550Q334 550 343 562L351 562L357 434L349 434Q337 453 307 467Q277 481 231 481Q180 481 159 463Q138 445 138 419Q138 386 164.50 368.50Q191 351 233 332Q264 319 291 303.50Q318 288 337.50 267.50Q357 247 368 222Q379 197 379 166Z"  horiz-adv-x="419" vert-adv-y="1000"  />

      
      <glyph glyph-name="uni25" unicode="&#x25;" d="M420 569L479 569L251-2L192-2L420 569M159 267Q102 267 71 307Q40 347 40 413Q40 482 72.50 520.50Q105 559 159 559Q216 559 246 519Q276 479 276 413Q276 343 244 305Q212 267 159 267M159 322Q188 322 201 346Q214 370 214 413Q214 455 201 479.50Q188 504 159 504Q130 504 116.50 479.50Q103 455 103 413Q103 370 116.50 346Q130 322 159 322M512-10Q455-10 424 30Q393 70 393 136Q393 205 425.50 243.50Q458 282 512 282Q569 282 599 242Q629 202 629 136Q629 66 597 28Q565-10 512-10M512 45Q541 45 554 69Q567 93 567 136Q567 178 554 202Q541 226 512 226Q482 226 468.50 202Q455 178 455 136Q455 93 468.50 69Q482 45 512 45Z"  horiz-adv-x="669" vert-adv-y="1000"  />

      
      <glyph glyph-name="uni26" unicode="&#x26;" d="M571 46L539 15L502-23L470-54L464-49Q466-32 454.50-9Q443 14 423 42Q395 18 357 4Q319-10 267-10Q217-10 175.50 5Q134 20 104 46.50Q74 73 57 110Q40 147 40 191Q40 220 47.50 248.50Q55 277 70.50 302Q86 327 110.50 347.50Q135 368 168 380L94 477L126 551L458 551L466 494L472 450L464 449Q448 462 415.50 466.50Q383 471 336 471L210 471L426 189Q432 209 435 230Q438 251 439 274Q439 293 434 303Q429 313 418 324L418 332L547 332L547 324Q536 313 530.50 301.50Q525 290 521 270Q516 233 507 193.50Q498 154 480 119Q506 87 527 69Q548 51 566 52L571 46M134 201Q134 174 143.50 150Q153 126 171.50 107.50Q190 89 216 78.50Q242 68 275 68Q307 68 332.50 77.50Q358 87 377 104L209 326Q173 306 153.50 272.50Q134 239 134 201Z"  horiz-adv-x="611" vert-adv-y="1000"  />

      
      <glyph glyph-name="uni27" unicode="&#x27;" d="M168 753Q157 739 151.50 704.50Q146 670 146 632Q146 594 151 558.50Q156 523 167 510L167 504L51 504L51 511Q62 524 67.50 559Q73 594 73 631Q73 669 68 704Q63 739 52 753L52 760L168 760L168 753Z"  horiz-adv-x="219" vert-adv-y="1000"  />

      
      <glyph glyph-name="uni28" unicode="&#x28;" d="M248-134Q200-103 163.50-53.50Q127-4 102 57Q77 118 64 186.50Q51 255 51 324Q51 388 63.50 452.50Q76 517 101.50 574.50Q127 632 163.50 680Q200 728 248 760L291 707Q253 678 223.50 636Q194 594 173.50 543Q153 492 143 436Q133 380 133 324Q133 262 143.50 201.50Q154 141 174.50 87.50Q195 34 224-9.50Q253-53 291-81L248-134Z"  horiz-adv-x="342" vert-adv-y="1000"  />

      
      <glyph glyph-name="uni29" unicode="&#x29;" d="M94 760Q140 729 177 682.50Q214 636 239 579Q264 522 277.50 457.50Q291 393 291 326Q291 256 277 190Q263 124 237.50 67Q212 10 175.50-36Q139-82 94-112L51-59Q88-31 117.50 11.50Q147 54 167.50 104.50Q188 155 198.50 211Q209 267 209 324Q209 381 198.50 437Q188 493 167.50 543.50Q147 594 117.50 636Q88 678 51 707L94 760L94 760Z"  horiz-adv-x="342" vert-adv-y="1000"  />

      
      <glyph glyph-name="uni2a" unicode="&#x2a;" d="M235 554L357 505L323 446L219 528L237 397L170 397L188 527L85 446L51 505L173 554L51 603L85 662L188 581L170 711L237 711L219 580L323 662L357 603L235 554Z"  horiz-adv-x="407" vert-adv-y="1000"  />

      
      <glyph glyph-name="uni2b" unicode="&#x2b;" d="M440 247L281 247L281 78L199 78L199 247L40 247L40 319L199 319L199 478L281 478L281 319L440 319L440 247Z"  horiz-adv-x="480" vert-adv-y="1000"  />

      
      <glyph glyph-name="uni2c" unicode="&#x2c;" d="M101 94Q124 94 138.50 78Q153 62 153 33Q153 22 150.50 7.50Q148-7 139.50-20Q131-33 116.50-42.50Q102-52 78-52L78-33Q102-28 109-9Q106-10 99-10Q78-10 64.50 4Q51 18 51 42Q51 67 65 80.50Q79 94 101 94Z"  horiz-adv-x="204" vert-adv-y="1000"  />

      
      <glyph glyph-name="uni2d" unicode="&#x2d;" d="M361 322L361 244L51 244L51 322L361 322Z"  horiz-adv-x="412" vert-adv-y="1000"  />

      
      <glyph glyph-name="uni2e" unicode="&#x2e;" d="M103-10Q80-10 65.50 3.50Q51 17 51 42Q50 67 65 80Q80 93 103 93Q125 93 139.50 80Q154 67 154 42Q154 17 139.50 3.50Q125-10 103-10Z"  horiz-adv-x="205" vert-adv-y="1000"  />

      
      <glyph glyph-name="uni2f" unicode="&#x2f;" d="M124-94L51-94L353 760L426 760L124-94Z"  horiz-adv-x="477" vert-adv-y="1000"  />

      
      <glyph glyph-name="uni30" unicode="&#x30;" d="M520 276Q520 207 502 154Q484 101 453.50 65Q423 29 381 10.50Q339-8 291-8Q241-8 199 11.50Q157 31 126.50 67.50Q96 104 79 157Q62 210 62 276Q62 345 79.50 398Q97 451 128 487Q159 523 201 541.50Q243 560 291 560Q342 560 384 540.50Q426 521 456.50 484.50Q487 448 503.50 395Q520 342 520 276M291 71Q361 71 393 127Q425 183 425 276Q425 322 417 360Q409 398 392.50 425Q376 452 351 466.50Q326 481 291 481Q256 481 231 466.50Q206 452 189.50 425Q173 398 165 360Q157 322 157 276Q157 183 189 127Q221 71 291 71Z"  horiz-adv-x="582" vert-adv-y="1000"  />

      
      <glyph glyph-name="uni31" unicode="&#x31;" d="M201 132Q201 85 206 53Q211 21 226 7L226-1L181-1L126 1L81 1L81 9Q96 23 101 55Q106 87 106 134L107 383Q107 430 101 460Q95 490 76 497L73 504L114 522L177 549L203 550L201 132L201 132Z"  horiz-adv-x="296" vert-adv-y="1000"  />

      
      <glyph glyph-name="uni32" unicode="&#x32;" d="M423 107L417 62L409 0L59 0L59 37Q59 74 68 112Q77 150 95.50 184.50Q114 219 143.50 248.50Q173 278 214 298Q234 308 254 318.50Q274 329 289.50 342Q305 355 314.50 371Q324 387 324 408Q324 444 296 460Q268 476 219 476Q200 476 179 471.50Q158 467 140 460.50Q122 454 108.50 445.50Q95 437 90 428L82 428L91 551L99 551Q107 541 121 543Q131 544 160 552Q189 560 245 560Q288 560 321 548Q354 536 376 515Q398 494 409 466.50Q420 439 420 409Q420 376 410 351Q400 326 379.50 304.50Q359 283 327.50 263Q296 243 254 221Q206 196 180.50 158Q155 120 150 85L313 85Q351 85 377.50 89.50Q404 94 416 108L423 107Z"  horiz-adv-x="493" vert-adv-y="1000"  />

      
      <glyph glyph-name="uni33" unicode="&#x33;" d="M306 293Q324 288 341 277.50Q358 267 371.50 251Q385 235 393.50 213.50Q402 192 402 165Q402 132 389.50 100.50Q377 69 351.50 44.50Q326 20 286 5Q246-10 191-10Q159-10 136-7Q113-4 102-2Q96-1 90.50-2.50Q85-4 80-10L72-10L63 111L71 111Q76 102 89 95.50Q102 89 119 84Q136 79 156 76.50Q176 74 194 74Q221 74 242 82Q263 90 278 103.50Q293 117 300.50 134Q308 151 308 170Q308 196 295.50 214.50Q283 233 262 243Q241 253 214.50 255Q188 257 160 251L160 330Q184 325 206.50 328Q229 331 247 341.50Q265 352 276 369.50Q287 387 287 410Q287 444 260.50 460Q234 476 196 476Q177 476 157 473.50Q137 471 119.50 466Q102 461 89.50 454.50Q77 448 72 439L64 439L73 560L81 560Q89 550 103 552Q114 554 136 557Q158 560 193 560Q246 560 282 549Q318 538 340.50 519Q363 500 372.50 473.50Q382 447 382 417Q382 371 359 340.50Q336 310 306 293Z"  horiz-adv-x="473" vert-adv-y="1000"  />

      
      <glyph glyph-name="uni34" unicode="&#x34;" d="M449 220L447 175L445 117L382 117Q383 76 388 48Q393 20 407 7L407-1L362-1L307 0L262 0L262 8Q276 20 281 48Q286 76 287 117L61 117L37 168L305 550L384 549L382 199Q425 204 441 220L449 220M288 407L145 196L287 196L288 407Z"  horiz-adv-x="520" vert-adv-y="1000"  />

      
      <glyph glyph-name="uni35" unicode="&#x35;" d="M251 349Q297 349 329.50 334Q362 319 383 295Q404 271 413.50 241Q423 211 423 181Q423 143 409 108Q395 73 368.50 47Q342 21 303.50 5.50Q265-10 215-10Q179-10 152-4.50Q125 1 114 3Q101 5 92-5L84-5L75 116L83 116Q87 107 101 99.50Q115 92 134 86.50Q153 81 175 77.50Q197 74 217 74Q248 74 269.50 84.50Q291 95 304 110.50Q317 126 322.50 144.50Q328 163 328 178Q328 197 323 214Q318 231 307 244.50Q296 258 276.50 266Q257 274 229 274Q211 274 192.50 270.50Q174 267 158.50 262Q143 257 130 251Q117 245 110 239L84 263L84 550L395 548L395 432L387 432Q373 447 341 452Q309 457 262 458L164 459L164 335Q182 341 203.50 345Q225 349 251 349Z"  horiz-adv-x="494" vert-adv-y="1000"  />

      
      <glyph glyph-name="uni36" unicode="&#x36;" d="M308 351Q352 351 385 336.50Q418 322 439.50 298.50Q461 275 472 244.50Q483 214 483 182Q483 151 473 117.50Q463 84 440.50 56Q418 28 381 10Q344-8 290-8Q242-8 201.50 10.50Q161 29 132 64Q103 99 87 151Q71 203 71 269Q71 337 89 391Q107 445 139.50 482.50Q172 520 216 540Q260 560 312 560Q335 560 355 557.50Q375 555 389 555Q399 555 408 556.50Q417 558 421 562L429 562L438 440L430 440Q419 453 395 467Q371 481 326 481Q284 481 254.50 465.50Q225 450 206 423.50Q187 397 177 362Q167 327 166 289Q187 314 221 332.50Q255 351 308 351M291 71Q342 71 367 101.50Q392 132 392 178Q392 218 366.50 247Q341 276 291 276Q268 276 250 269.50Q232 263 217 252.50Q202 242 191 229.50Q180 217 171 204Q175 177 183.50 152.50Q192 128 206.50 110Q221 92 241.50 81.50Q262 71 291 71Z"  horiz-adv-x="543" vert-adv-y="1000"  />

      
      <glyph glyph-name="uni37" unicode="&#x37;" d="M202-1L107 0L294 462L204 461Q157 460 125 455Q93 450 79 435L71 435L71 548L426 550L202-1Z"  horiz-adv-x="474" vert-adv-y="1000"  />

      
      <glyph glyph-name="uni38" unicode="&#x38;" d="M384 299Q402 294 419 282.50Q436 271 449.50 253.50Q463 236 471 212.50Q479 189 479 160Q479 124 465.50 93Q452 62 426 39Q400 16 362 3Q324-10 275-10Q233-10 196 2Q159 14 131.50 36Q104 58 87.50 89.50Q71 121 71 160Q71 189 79 212.50Q87 236 100.50 253.50Q114 271 131 282.50Q148 294 166 299Q138 315 117 342.50Q96 370 96 412Q96 482 143 520.50Q190 559 275 560Q355 560 404.50 523Q454 486 454 412Q454 370 433 342.50Q412 315 384 299M275 476Q238 476 214.50 458Q191 440 191 406Q191 369 215.50 351Q240 333 275 333Q310 333 334.50 351Q359 369 359 406Q359 440 335.50 458Q312 476 275 476M275 74Q327 75 356 103.50Q385 132 385 169Q385 214 355.50 238Q326 262 275 262Q227 262 196 236.50Q165 211 165 169Q165 132 194 103.50Q223 75 275 74Z"  horiz-adv-x="550" vert-adv-y="1000"  />

      
      <glyph glyph-name="uni39" unicode="&#x39;" d="M264 562Q312 562 352.50 543.50Q393 525 422 490Q451 455 467 403Q483 351 483 285Q483 217 464.50 163Q446 109 414 71.50Q382 34 338 14Q294-6 242-6Q219-6 199-3.50Q179-1 165-1Q155-1 146-2.50Q137-4 133-8L125-8L116 114L124 114Q135 101 159 87Q183 73 228 73Q269 73 298.50 88.50Q328 104 347 130.50Q366 157 375.50 191.50Q385 226 387 264Q366 240 332 221.50Q298 203 246 203Q202 203 169 217.50Q136 232 114 255.50Q92 279 81.50 309.50Q71 340 71 372Q71 403 81 436.50Q91 470 113.50 498Q136 526 173 544Q210 562 264 562M263 278Q307 278 336 300.50Q365 323 382 349Q378 376 369.50 400.50Q361 425 346.50 443.50Q332 462 311.50 472.50Q291 483 263 483Q212 483 186.50 452.50Q161 422 161 376Q161 336 187 307Q213 278 263 278Z"  horiz-adv-x="554" vert-adv-y="1000"  />

      
      <glyph glyph-name="uni3a" unicode="&#x3a;" d="M103 452Q80 452 65.50 465.50Q51 479 51 504Q51 529 65.50 542Q80 555 103 555Q126 555 140 542Q154 529 154 504Q154 479 140 465.50Q126 452 103 452M103-10Q80-10 65.50 3.50Q51 17 51 42Q51 67 65.50 80Q80 93 103 93Q126 93 140 80Q154 67 154 42Q154 17 140 3.50Q126-10 103-10Z"  horiz-adv-x="205" vert-adv-y="1000"  />

      
      <glyph glyph-name="uni3b" unicode="&#x3b;" d="M103 452Q80 452 65.50 465.50Q51 479 51 504Q51 529 65.50 542Q80 555 103 555Q126 555 140 542Q154 529 154 504Q154 479 140 465.50Q126 452 103 452M107 94Q130 94 144.50 78Q159 62 159 33Q159 22 156.50 7.50Q154-7 145.50-20Q137-33 122.50-42.50Q108-52 84-52L84-33Q108-28 115-9Q112-10 104-10Q83-10 69.50 4Q56 18 56 42Q56 67 70.50 80.50Q85 94 107 94Z"  horiz-adv-x="210" vert-adv-y="1000"  />

      
      <glyph glyph-name="uni3c" unicode="&#x3c;" d="M440 422L123 292L440 162L440 85L40 249L40 335L440 499L440 422Z"  horiz-adv-x="480" vert-adv-y="1000"  />

      
      <glyph glyph-name="uni3d" unicode="&#x3d;" d="M440 437L440 359L40 359L40 437L440 437M440 227L440 149L40 149L40 227L440 227Z"  horiz-adv-x="480" vert-adv-y="1000"  />

      
      <glyph glyph-name="uni3e" unicode="&#x3e;" d="M440 335L440 249L40 85L40 162L357 292L40 422L40 499L440 335Z"  horiz-adv-x="480" vert-adv-y="1000"  />

      
      <glyph glyph-name="uni3f" unicode="&#x3f;" d="M202 194Q177 194 157 218.50Q137 243 137 288Q137 323 148.50 351.50Q160 380 177.50 404.50Q195 429 215 450.50Q235 472 252.50 493.50Q270 515 281.50 537.50Q293 560 293 587Q293 629 269.50 653Q246 677 192 677Q173 677 151.50 673Q130 669 111 662.50Q92 656 78 648Q64 640 59 631L51 631L60 751L68 751Q76 741 90 743Q100 744 129 752Q158 760 214 760Q257 760 289.50 747.50Q322 735 344 714Q366 693 377.50 665.50Q389 638 389 608Q389 567 376 535.50Q363 504 344 477.50Q325 451 302.50 428.50Q280 406 261 384.50Q242 363 229 339.50Q216 316 216 288Q216 273 225.50 257Q235 241 254 233Q240 194 202 194M199-5Q176-5 161.50 8.50Q147 22 147 46Q147 71 161.50 84.50Q176 98 199 98Q222 98 236.50 84.50Q251 71 251 46Q251 22 236.50 8.50Q222-5 199-5Z"  horiz-adv-x="440" vert-adv-y="1000"  />

      
      <glyph glyph-name="uni40" unicode="&#x40;" d="M341 577Q409 577 464.50 555.50Q520 534 559.50 494.50Q599 455 620.50 399.50Q642 344 642 277Q642 237 634 202.50Q626 168 610 143Q594 118 569.50 103.50Q545 89 512 89Q492 89 472.50 93.50Q453 98 436.50 108.50Q420 119 408.50 136Q397 153 393 179L388 209L287 194Q282 140 301 121L301 113L256 113L228 114L183 114L183 122Q198 136 208 167.50Q218 199 226 245L240 324Q248 371 247.50 402.50Q247 434 232 448L232 456L431 456L471 209Q476 173 489.50 160Q503 147 520 147Q556 147 575 183.50Q594 220 594 277Q594 334 576 380.50Q558 427 524.50 460Q491 493 444.50 511Q398 529 341 529Q284 529 237.50 511Q191 493 157.50 460Q124 427 106 380.50Q88 334 88 277Q88 220 106 173.50Q124 127 157.50 93.50Q191 60 237.50 42Q284 24 341 24Q417 24 476 58L499 16Q464-4 426.50-14Q389-24 341-24Q273-24 217.50-2.50Q162 19 122.50 58.50Q83 98 61.50 153.50Q40 209 40 277Q40 344 61.50 399.50Q83 455 122.50 494.50Q162 534 217.50 555.50Q273 577 341 577M378 271L359 390L317 391L295 258L378 271Z"  horiz-adv-x="682" vert-adv-y="1000"  />

      
      <glyph glyph-name="uni47" unicode="&#x47;" d="M669 281Q654 267 649 235Q644 203 644 156L644-137Q644-184 649-216Q654-248 669-262L669-270L519-270L519-262Q534-248 539-216Q544-184 544-137L544-134Q521-148 494-154.50Q467-161 441-161Q406-161 366-150Q326-139 287-115Q248-91 212.50-53Q177-15 150 38.50Q123 92 107 162.50Q91 233 91 322Q91 448 121.50 534Q152 620 200.50 672.50Q249 725 309.50 747.50Q370 770 429 770Q489 770 534.50 750.50Q580 731 611 699Q642 667 658 626Q674 585 674 541Q674 502 661.50 467Q649 432 627 406.50Q605 381 574.50 366Q544 351 507 351Q477 351 451.50 360.50Q426 370 407.50 386.50Q389 403 378 426.50Q367 450 367 478Q367 502 374.50 520Q382 538 394 550Q406 562 421.50 568Q437 574 453 574Q479 574 494.50 561.50Q510 549 510 529Q510 519 505.50 510.50Q501 502 496 499Q494 511 486.50 516.50Q479 522 468 522Q450 522 442 509.50Q434 497 434 483Q434 457 453 441.50Q472 426 498 426Q515 426 531.50 433.50Q548 441 560.50 455.50Q573 470 580.50 491Q588 512 588 539Q588 571 576.50 597.50Q565 624 544.50 642.50Q524 661 496 671Q468 681 435 681Q395 681 352 663.50Q309 646 273 604.50Q237 563 214 495Q191 427 191 326Q191 225 213.50 152.50Q236 80 273 33Q310-14 355.50-36.50Q401-59 448-59Q507-59 544-28L544 156Q544 203 539 235Q534 267 519 281L519 289L669 289L669 281Z"  horiz-adv-x="713" vert-adv-y="1000"  />

      
      <glyph glyph-name="uni49" unicode="&#x49;" d="M560-21Q560-68 565-100Q570-132 585-146L585-154L435-154L435-146Q450-132 455-100Q460-68 460-21L460 684Q425 688 388 696.50Q351 705 311 705Q221 705 177 661Q133 617 133 545Q133 514 142.50 491Q152 468 166 452.50Q180 437 198 429Q216 421 234 421Q265 421 284 438Q303 455 304 483Q304 500 295 512.50Q286 525 267 525Q243 525 236 502Q231 506 226.50 515Q222 524 222 535Q222 557 241 571.50Q260 586 290 586Q324 586 352 559.50Q380 533 381 481Q381 450 369 424Q357 398 336.50 379.50Q316 361 288.50 350.50Q261 340 230 340Q190 340 156 356Q122 372 97.50 400Q73 428 59.50 465.50Q46 503 46 545Q46 597 64 641Q82 685 115 717Q148 749 196 767Q244 785 304 785Q337 785 367.50 780.50Q398 776 428.50 771Q459 766 491.50 762Q524 758 560 760L560-21L560-21Z"  horiz-adv-x="641" vert-adv-y="1000"  />

      
      <glyph glyph-name="uni4a" unicode="&#x4a;" d="M248-234Q207-234 169.50-220Q132-206 103.50-180Q75-154 58-117Q41-80 41-35Q41 0 51.50 30.50Q62 61 82.50 83.50Q103 106 132 119Q161 132 199 132Q230 132 252 122.50Q274 113 288.50 98.50Q303 84 309.50 66Q316 48 316 30Q316-1 300-25Q284-49 255-49Q241-49 232.50-43.50Q224-38 222-30Q236-28 246-17.50Q256-7 256 10Q256 30 242 42.50Q228 55 201 55Q181 55 167 47.50Q153 40 144 28Q135 16 131 0.50Q127-15 127-30Q127-51 135-71.50Q143-92 158.50-108Q174-124 196-134Q218-144 247-144Q281-144 310-133.50Q339-123 360-98.50Q381-74 393.50-34Q406 6 407 65L411 617Q411 664 406.50 696Q402 728 387 742L387 750L535 750L535 742Q520 728 515 696Q510 664 510 617L508 56Q508-13 488-67Q468-121 433.50-158Q399-195 351-214.50Q303-234 248-234Z"  horiz-adv-x="587" vert-adv-y="1000"  />

      
      <glyph glyph-name="uni4c" unicode="&#x4c;" d="M780-40L774-84L766-154L418-154L418-146Q433-132 438-100Q443-68 443-21L443 687Q414 691 382 698Q350 705 311 705Q221 705 177 661Q133 617 134 545Q134 514 143 491Q152 468 166 452.50Q180 437 198.50 429Q217 421 235 421Q265 421 284 438Q303 455 304 483Q304 500 295.50 512.50Q287 525 267 525Q244 525 237 502Q232 506 227 515Q222 524 222 535Q222 557 241 571.50Q260 586 290 586Q307 586 323.50 579.50Q340 573 352.50 559.50Q365 546 373 526.50Q381 507 381 481Q381 450 369.50 424Q358 398 337.50 379.50Q317 361 289.50 350.50Q262 340 231 340Q191 340 157 356Q123 372 98.50 400Q74 428 60.50 465.50Q47 503 47 545Q47 597 64.50 641Q82 685 115.50 717Q149 749 197 767Q245 785 305 785Q338 785 366 781Q394 777 421.50 772.50Q449 768 478.50 764Q508 760 544 760L543 758L543-61L644-61Q691-61 723.50-56.50Q756-52 772-39L780-40Z"  horiz-adv-x="715" vert-adv-y="1000"  />

      
      <glyph glyph-name="uni4e" unicode="&#x4e;" d="M938 752Q923 738 918 706Q913 674 913 627L913-21Q913-68 918-100Q923-132 938-146L938-154L796-154L796-146Q811-132 816-100Q821-68 821-21L821 158L548 565L548-21Q548-68 553-100Q558-132 573-146L573-154L432-154L432-146Q447-132 452-100Q457-68 457-21L457 685Q424 688 390 696.50Q356 705 311 705Q221 705 177 661Q133 617 134 545Q134 514 143 491Q152 468 166 452.50Q180 437 198.50 429Q217 421 235 421Q265 421 284 438Q303 455 304 483Q304 500 295.50 512.50Q287 525 267 525Q244 525 237 502Q232 506 227 515Q222 524 222 535Q222 557 241 571.50Q260 586 290 586Q307 586 323.50 579.50Q340 573 352.50 559.50Q365 546 373 526.50Q381 507 381 481Q381 450 369.50 424Q358 398 337.50 379.50Q317 361 289.50 350.50Q262 340 231 340Q191 340 157 356Q123 372 98.50 400Q74 428 60.50 465.50Q47 503 47 545Q47 597 64.50 641Q82 685 115.50 717Q149 749 197 767Q245 785 305 785Q338 785 366 781Q394 777 421.50 772.50Q449 768 478.50 764Q508 760 544 760L544 759L821 342L821 627Q821 674 816 706Q811 738 796 752L796 760L938 760L938 752L938 752Z"  horiz-adv-x="994" vert-adv-y="1000"  />

      
      <glyph glyph-name="uni4f" unicode="&#x4f;" d="M628 507Q665 481 685 423Q705 365 705 276Q705 173 678.50 92Q652 11 607.50-45.50Q563-102 504-131.50Q445-161 381-161Q316-161 255-133.50Q194-106 147-48Q100 10 71 98Q42 186 42 308Q42 424 69 511Q96 598 142.50 655.50Q189 713 251 741.50Q313 770 383 770Q443 770 489 750.50Q535 731 566.50 699.50Q598 668 614.50 627Q631 586 631 543Q631 525 628 507M381-73Q449-73 493-38.50Q537-4 563 49Q589 102 599.50 166Q610 230 610 289Q610 332 605.50 364.50Q601 397 593 422Q569 389 533.50 370Q498 351 456 351Q427 351 401.50 360.50Q376 370 357 386.50Q338 403 327.50 426.50Q317 450 317 478Q317 502 324.50 520Q332 538 344 550Q356 562 371.50 568Q387 574 403 574Q428 574 444 561.50Q460 549 460 529Q460 519 455.50 510.50Q451 502 446 499Q440 522 418 522Q400 522 391.50 509.50Q383 497 383 483Q383 457 402.50 441.50Q422 426 448 426Q465 426 481 433.50Q497 441 510 455.50Q523 470 530.50 491Q538 512 538 539Q538 571 526 597.50Q514 624 493 642.50Q472 661 442.50 671.50Q413 682 377 682Q311 682 266.50 649.50Q222 617 195 563.50Q168 510 156.50 443Q145 376 145 307Q145 239 156.50 171Q168 103 195.50 49Q223-5 268-39Q313-73 381-73Z"  horiz-adv-x="747" vert-adv-y="1000"  />

      
      <glyph glyph-name="uni51" unicode="&#x51;" d="M573-83Q599-114 627.50-131.50Q656-149 693-142L693-249Q660-249 632-239.50Q604-230 581-214.50Q558-199 538-178Q518-157 501-133Q443-161 381-161Q316-161 255-133.50Q194-106 147-48Q100 10 71 98Q42 186 42 308Q42 424 69 511Q96 598 142.50 655.50Q189 713 251 741.50Q313 770 384 770Q443 770 489 750.50Q535 731 566.50 699.50Q598 668 614.50 627Q631 586 631 543Q631 525 628 507Q665 481 685 423Q705 365 705 276Q705 154 669 63.50Q633-27 573-83M377 682Q311 682 266.50 649.50Q222 617 195 563.50Q168 510 156.50 442.50Q145 375 145 305Q145 254 151.50 204Q158 154 172 108Q189 135 220.50 154.50Q252 174 299 174Q339 174 371 157Q403 140 429.50 113.50Q456 87 479 54Q502 21 523-12Q548 15 564.50 51Q581 87 591 126.50Q601 166 605.50 208Q610 250 610 289Q610 332 605.50 364.50Q601 397 593 422Q569 389 533.50 370Q498 351 456 351Q427 351 401.50 360.50Q376 370 357 386.50Q338 403 327.50 426.50Q317 450 317 478Q317 502 324.50 520Q332 538 344 550Q356 562 371.50 568Q387 574 403 574Q428 574 444 561.50Q460 549 460 529Q460 519 455.50 510.50Q451 502 446 499Q440 522 418 522Q400 522 391.50 509.50Q383 497 383 483Q383 457 402.50 441.50Q422 426 448 426Q465 426 481 433.50Q497 441 510 455.50Q523 470 530.50 491Q538 512 538 539Q538 571 526 597.50Q514 624 493 642.50Q472 661 442.50 671.50Q413 682 377 682M381-73Q420-73 454-60Q436-32 419-5.50Q402 21 382.50 41.50Q363 62 340.50 74Q318 86 290 86Q256 86 235.50 69.50Q215 53 204 33Q232-15 275-44Q318-73 381-73Z"  horiz-adv-x="747" vert-adv-y="1000"  />

      
      <glyph glyph-name="uni53" unicode="&#x53;" d="M373 417Q421 390 459 358Q497 326 524 288.50Q551 251 565.50 207Q580 163 580 111Q580 56 562 0.50Q544-55 508-99Q472-143 417.50-171Q363-199 290-199Q225-199 174.50-178.50Q124-158 89.50-123.50Q55-89 36.50-43.50Q18 2 18 52Q18 97 32.50 133.50Q47 170 71.50 196.50Q96 223 128.50 237.50Q161 252 197 252Q227 252 253.50 242Q280 232 300.50 214.50Q321 197 332.50 172Q344 147 344 117Q344 73 318.50 43Q293 13 255 13Q227 13 208.50 26.50Q190 40 190 63Q190 74 194.50 81Q199 88 204 92Q212 68 235 68Q253 68 263.50 83.50Q274 99 274 116Q274 143 254 160Q234 177 203 177Q184 177 166 169.50Q148 162 134 147Q120 132 111.50 109.50Q103 87 103 57Q103 18 118-13Q133-44 158-66.50Q183-89 216-101Q249-113 285-113Q333-113 369.50-94.50Q406-76 430.50-46Q455-16 467.50 22Q480 60 480 99Q480 141 468.50 175Q457 209 433.50 238.50Q410 268 375.50 294.50Q341 321 296 347Q259 368 226.50 389Q194 410 170 436Q146 462 132 495Q118 528 118 572Q118 615 133 651.50Q148 688 176.50 714Q205 740 245.50 755Q286 770 337 770Q363 770 387 766Q411 762 430.50 757.50Q450 753 463.50 749Q477 745 483 744Q496 742 505 752L513 752L516 607L508 607Q503 616 490.50 628Q478 640 457.50 651Q437 662 408.50 669.50Q380 677 344 677Q291 677 256 654.50Q221 632 221 580Q221 550 234 527Q247 504 268 485.50Q289 467 316.50 450.50Q344 434 373 417Z"  horiz-adv-x="605" vert-adv-y="1000"  />

      
      <glyph glyph-name="uni55" unicode="&#x55;" d="M899 752Q884 738 879 706Q874 674 874 627L874 42Q874-9 855-47Q836-85 806-111Q776-137 738-150Q700-163 662-163Q630-163 592-152.50Q554-142 521-118Q488-94 465.50-55Q443-16 443 42L443 687Q414 691 382 698Q350 705 311 705Q221 705 177 661Q133 617 134 545Q134 514 143 491Q152 468 166 452.50Q180 437 198.50 429Q217 421 235 421Q265 421 284 438Q303 455 304 483Q304 500 295.50 512.50Q287 525 267 525Q244 525 237 502Q232 506 227 515Q222 524 222 535Q222 557 241 571.50Q260 586 290 586Q307 586 323.50 579.50Q340 573 352.50 559.50Q365 546 373 526.50Q381 507 381 481Q381 450 369.50 424Q358 398 337.50 379.50Q317 361 289.50 350.50Q262 340 231 340Q191 340 157 356Q123 372 98.50 400Q74 428 60.50 465.50Q47 503 47 545Q47 597 64.50 641Q82 685 115.50 717Q149 749 197 767Q245 785 305 785Q338 785 366 781Q394 777 421.50 772.50Q449 768 478.50 764Q508 760 544 760L543 758L543 47Q543 14 555.50-8.50Q568-31 586-44.50Q604-58 625-64Q646-70 663-70Q680-70 700-64Q720-58 737.50-44.50Q755-31 767-8.50Q779 14 779 47L779 627Q779 674 774 706Q769 738 754 752L754 760L899 760L899 752Z"  horiz-adv-x="939" vert-adv-y="1000"  />

      
      <glyph glyph-name="uni56" unicode="&#x56;" d="M952 752Q937 738 926 706.50Q915 675 906 629L747-154L638-154L449 685Q431 686 413.50 689Q396 692 377.50 695.50Q359 699 338.50 702Q318 705 294 705Q204 705 160 661Q116 617 117 545Q117 514 126 491Q135 468 149 452.50Q163 437 181.50 429Q200 421 218 421Q248 421 267 438Q286 455 287 483Q287 500 278.50 512.50Q270 525 250 525Q227 525 220 502Q215 506 210 515Q205 524 205 535Q205 557 224 571.50Q243 586 273 586Q290 586 306.50 579.50Q323 573 335.50 559.50Q348 546 356 526.50Q364 507 364 481Q364 450 352.50 424Q341 398 320.50 379.50Q300 361 272.50 350.50Q245 340 214 340Q174 340 140 356Q106 372 81.50 400Q57 428 43.50 465.50Q30 503 30 545Q30 597 47.50 641Q65 685 98.50 717Q132 749 180 767Q228 785 288 785Q321 785 349 781Q377 777 404.50 772.50Q432 768 461.50 764Q491 760 527 760L534 760L694 50L811 629Q821 675 821.50 706.50Q822 738 807 752L807 760L952 760L952 752Z"  horiz-adv-x="937" vert-adv-y="1000"  />

      
      <glyph glyph-name="uni57" unicode="&#x57;" d="M1282 752Q1267 738 1256 706.50Q1245 675 1236 629L1080-152L1081-154L979-154L845 446L736-154L632-154L445 685Q428 686 410.50 689.50Q393 693 375 696.50Q357 700 337 702.50Q317 705 294 705Q204 705 160 661Q116 617 117 545Q117 514 126 491Q135 468 149 452.50Q163 437 181.50 429Q200 421 218 421Q248 421 267 438Q286 455 287 483Q287 500 278.50 512.50Q270 525 250 525Q227 525 220 502Q215 506 210 515Q205 524 205 535Q205 557 224 571.50Q243 586 273 586Q290 586 306.50 579.50Q323 573 335.50 559.50Q348 546 356 526.50Q364 507 364 481Q364 450 352.50 424Q341 398 320.50 379.50Q300 361 272.50 350.50Q245 340 214 340Q174 340 140 356Q106 372 81.50 400Q57 428 43.50 465.50Q30 503 30 545Q30 597 47.50 641Q65 685 98.50 717Q132 749 180 767Q228 785 288 785Q321 785 349 781Q377 777 404.50 772.50Q432 768 461.50 764Q491 760 527 760L530 760L685 62L796 663Q788 695 778 718Q768 741 756 752L756 760L908 760L908 752Q893 738 894.50 706.50Q896 675 906 630L1032 65L1136 629Q1144 675 1144.50 706.50Q1145 738 1130 752L1130 760L1282 760L1282 752Z"  horiz-adv-x="1267" vert-adv-y="1000"  />

      
      <glyph glyph-name="uni59" unicode="&#x59;" d="M919 752Q904 738 887 708Q870 678 852 635L715 303L715-11Q715-59 720-90.50Q725-122 740-136L740-144L589-144L589-136Q604-122 609-90.50Q614-59 614-11L614 306L451 684Q415 686 378 695.50Q341 705 294 705Q203 705 159.50 661Q116 617 117 545Q117 514 126 491Q135 468 149 452.50Q163 437 181.50 429Q200 421 218 421Q248 421 267 438Q286 455 287 483Q287 500 278.50 512.50Q270 525 250 525Q228 525 220 502Q215 506 210 515Q205 524 205 535Q205 557 224 571.50Q243 586 273 586Q290 586 306.50 579.50Q323 573 335.50 559.50Q348 546 356 526.50Q364 507 364 481Q364 450 352.50 424Q341 398 320.50 379.50Q300 361 272.50 350.50Q245 340 214 340Q173 340 139.50 356Q106 372 81.50 400Q57 428 43.50 465.50Q30 503 30 545Q30 597 47.50 641Q65 685 98.50 717Q132 749 180 767Q228 785 288 785Q321 785 349 781Q377 777 404.50 772.50Q432 768 461.50 764Q491 760 527 760L530 760L667 434L752 635Q770 678 776 708Q782 738 767 752L767 760L919 760L919 752Z"  horiz-adv-x="864" vert-adv-y="1000"  />

      
      <glyph glyph-name="uni5a" unicode="&#x5a;" d="M459 136Q506 136 538.50 103Q571 70 571 12Q571-23 558-54.50Q545-86 521.50-110Q498-134 465-148.50Q432-163 392-163Q360-163 336.50-156Q313-149 293.50-140Q274-131 256.50-124Q239-117 219-117Q195-117 175.50-128Q156-139 147-154L85-114L383 667L240 667Q193 667 160.50 662.50Q128 658 112 645L104 646L110 690L118 760L502 760L502 702L226-25Q249-27 269-34Q289-41 308-49Q327-57 346-63.50Q365-70 387-70Q429-70 455.50-45.50Q482-21 482 17Q483 41 470 55Q457 69 439 69Q422 69 410.50 59.50Q399 50 397 35Q390 37 384 44.50Q378 52 378 66Q378 98 402.50 116.50Q427 135 459 136Z"  horiz-adv-x="534" vert-adv-y="1000"  />

      
      <glyph glyph-name="uni5b" unicode="&#x5b;" d="M130 688L128-49L266-49L266-120L51-120L53 760L267 760L267 687L130 688Z"  horiz-adv-x="318" vert-adv-y="1000"  />

      
      <glyph glyph-name="uni5c" unicode="&#x5c;" d="M119 760L421-94L353-94L51 760L119 760Z"  horiz-adv-x="472" vert-adv-y="1000"  />

      
      <glyph glyph-name="uni5d" unicode="&#x5d;" d="M267-120L52-120L52-49L189-49L187 688L51 687L51 760L265 760L267-120Z"  horiz-adv-x="318" vert-adv-y="1000"  />

      
      <glyph glyph-name="uni5e" unicode="&#x5e;" d="M323 467L218 685L112 467L40 467L182 759L181 760L254 760L254 759L395 467L323 467Z"  horiz-adv-x="435" vert-adv-y="1000"  />

      
      <glyph glyph-name="uni5f" unicode="&#x5f;" d="M451 0L451-72L51-72L51 0L451 0Z"  horiz-adv-x="502" vert-adv-y="1000"  />

      
      <glyph glyph-name="uni60" unicode="&#x60;" d="M133 760L195 612L133 612L40 760L133 760Z"  horiz-adv-x="235" vert-adv-y="1000"  />

      
      <glyph glyph-name="uni61" unicode="&#x61;" d="M451 132Q459 85 468 53.50Q477 22 492 8L492 0L345 0L345 8Q360 22 360.50 53.50Q361 85 353 132L350 148L158 118Q152 76 153 48.50Q154 21 168 8L168 0L35 0L35 8Q50 22 60 53.50Q70 85 78 132L126 418Q134 465 133.50 496.50Q133 528 118 542L118 550L384 550L451 132L451 132M339 223L300 473L216 473L170 196L339 223Z"  horiz-adv-x="527" vert-adv-y="1000"  />

      
      <glyph glyph-name="uni62" unicode="&#x62;" d="M403 318Q421 311 438 299Q455 287 468.50 269.50Q482 252 490 229.50Q498 207 498 179Q498 141 484.50 108Q471 75 446 51Q421 27 384 13.50Q347 0 301 0L67 0L67 8Q82 22 87 54Q92 86 92 133L94 417Q94 464 89 496Q84 528 69 542L69 550L322 550Q388 550 425.50 518Q463 486 463 429Q463 395 447.50 367.50Q432 340 403 318M189 471L188 316Q225 320 258 327.50Q291 335 315.50 347.50Q340 360 354 377.50Q368 395 368 418Q368 439 353 455Q338 471 296 471L189 471M280 79Q337 79 371 109.50Q405 140 405 188Q405 216 387.50 242Q370 268 332 280Q269 256 188 248L187 79L280 79L280 79Z"  horiz-adv-x="543" vert-adv-y="1000"  />

      
      <glyph glyph-name="uni63" unicode="&#x63;" d="M317-8Q273-8 226.50 8.50Q180 25 141 59.50Q102 94 77 148Q52 202 52 276Q52 351 77 404.50Q102 458 141 492.50Q180 527 227 543.50Q274 560 318 560Q354 560 372 557.50Q390 555 403 555Q411 555 415 556.50Q419 558 423 563L430 563L434 439L426 439Q415 456 393.50 468.50Q372 481 326 481Q286 481 253 466.50Q220 452 197 425.50Q174 399 161 361Q148 323 148 276Q148 231 160.50 193.50Q173 156 196.50 129Q220 102 252 87Q284 72 323 72Q350 72 367.50 76Q385 80 396.50 86.50Q408 93 414.50 100.50Q421 108 426 116L434 116L430-3L423-3Q416 4 405 4Q391 4 369.50-2Q348-8 317-8Z"  horiz-adv-x="493" vert-adv-y="1000"  />

      
      <glyph glyph-name="uni64" unicode="&#x64;" d="M263 550Q311 550 356 533Q401 516 435 482Q469 448 489.50 396.50Q510 345 510 276Q510 206 489.50 154.50Q469 103 434.50 68.50Q400 34 355.50 17Q311 0 262 0L67 0L67 8Q82 22 87 54Q92 86 92 133L94 417Q94 464 89 496Q84 528 69 542L69 550L263 550L263 550M263 79Q300 79 328.50 93.50Q357 108 376 134Q395 160 404.50 196Q414 232 414 276Q414 363 375.50 417Q337 471 261 471L189 471L187 80L263 79L263 79Z"  horiz-adv-x="562" vert-adv-y="1000"  />

      
      <glyph glyph-name="uni65" unicode="&#x65;" d="M302 79Q344 79 374 83.50Q404 88 418 102L425 101L421 56L415 0L67 0L67 8Q82 22 87 54Q92 86 92 133L94 417Q94 464 89 496Q84 528 69 542L69 550L416 550L421 493L425 448L418 447Q405 461 377 466Q349 471 308 471L189 471L188 318L237 326Q276 334 304 343Q332 352 343 367L350 367L350 322L349 282L349 237L342 237Q330 252 302.50 252.50Q275 253 236 246L188 238L187 79L302 79L302 79Z"  horiz-adv-x="475" vert-adv-y="1000"  />

      
      <glyph glyph-name="uni66" unicode="&#x66;" d="M189 471L188 292L227 299Q274 307 305.50 317Q337 327 351 342L359 342L359 297L358 256L358 211L350 212Q336 227 304.50 227Q273 227 226 219L187 212L187 132Q187 85 192 53Q197 21 212 7L212-1L167-1L112 0L67 0L67 8Q82 22 87 54Q92 86 92 133L94 417Q94 464 89 496Q84 528 69 542L69 550L416 550L421 493L425 448L417 448Q402 462 369.50 466.50Q337 471 290 471L189 471Z"  horiz-adv-x="465" vert-adv-y="1000"  />

      
      <glyph glyph-name="uni67" unicode="&#x67;" d="M478 310Q463 296 457.50 264Q452 232 452 185L451 46Q424 14 387 3Q350-8 314-8Q269-8 222.50 7.50Q176 23 138 56.50Q100 90 76 144.50Q52 199 52 277Q52 352 76.50 405.50Q101 459 140 493.50Q179 528 227 544Q275 560 322 560Q345 560 363.50 557Q382 554 396 554Q404 554 411 556Q418 558 422 563L430 563L434 439L426 439Q399 480 328 480Q288 480 255 467Q222 454 198 428.50Q174 403 161 365Q148 327 148 277Q148 226 161 187.50Q174 149 196 123.50Q218 98 247.50 85Q277 72 311 72Q342 72 363 81L364 185Q364 232 359.50 264Q355 296 340 310L340 318L478 318L478 310Z"  horiz-adv-x="545" vert-adv-y="1000"  />

      
      <glyph glyph-name="uni68" unicode="&#x68;" d="M510 542Q495 528 490 496Q485 464 485 417L483 133Q483 86 488 54Q493 22 508 8L508 0L362 0L362 8Q377 22 382 54Q387 86 387 133L388 291L188 263L187 133Q187 86 192 54Q197 22 212 8L212 0L67 0L67 8Q82 22 87 54Q92 86 92 133L94 417Q94 464 89 496Q84 528 69 542L69 550L214 550L214 542Q199 528 194 496Q189 464 189 417L188 342L389 371L389 417Q389 464 384 496Q379 528 364 542L364 550L510 550L510 542Z"  horiz-adv-x="577" vert-adv-y="1000"  />

      
      <glyph glyph-name="uni69" unicode="&#x69;" d="M187 132Q187 85 192 53Q197 21 212 7L212-1L167-1L112 0L67 0L67 8Q82 22 87 54Q92 86 92 133L94 417Q94 464 89 496Q84 528 69 542L69 550L214 550L214 542Q199 528 194 496Q189 464 189 417L187 132L187 132Z"  horiz-adv-x="281" vert-adv-y="1000"  />

      
      <glyph glyph-name="uni6a" unicode="&#x6a;" d="M91 0Q72 0 58.50 2Q45 4 34 8L26 104L34 104Q39 94 54.50 87Q70 80 89 80Q127 80 152.50 107Q178 134 178 183L177 417Q177 464 172 496Q167 528 152 542L152 550L298 550L298 542Q283 528 278 496Q273 464 273 417L274 180Q274 128 255.50 93.50Q237 59 209 38Q181 17 149.50 8.50Q118 0 91 0Z"  horiz-adv-x="354" vert-adv-y="1000"  />

      
      <glyph glyph-name="uni6b" unicode="&#x6b;" d="M503 542Q488 528 463 503Q438 478 408 443L353 378L441 127Q457 83 471.50 52.50Q486 22 501 8L501 0L350 0L350 8Q365 22 360 52Q355 82 339 127L280 291L187 182L187 133Q187 86 192 54Q197 22 212 8L212 0L67 0L67 8Q82 22 87 54Q92 86 92 133L94 417Q94 464 89 496Q84 528 69 542L69 550L214 550L214 542Q199 528 194 496Q189 464 189 417L188 294L311 441Q341 477 354.50 502.50Q368 528 353 542L353 550L503 550L503 542L503 542Z"  horiz-adv-x="553" vert-adv-y="1000"  />

      
      <glyph glyph-name="uni6c" unicode="&#x6c;" d="M410 103L405 54L400 0L67 0L67 8Q82 22 87 54Q92 86 92 133L94 417Q94 464 89 496Q84 528 69 542L69 550L214 550L214 542Q199 528 194 496Q189 464 189 417L187 79L275 79Q322 79 354.50 84Q387 89 403 104L410 103Z"  horiz-adv-x="464" vert-adv-y="1000"  />

      
      <glyph glyph-name="uni6d" unicode="&#x6d;" d="M602 542Q587 528 582 496Q577 464 577 417L575 132Q575 85 580 53Q585 21 600 7L600-1L555-1L500 0L455 0L455 8Q470 22 475 54Q480 86 480 133L481 383L328 106L174 379L173 132Q173 85 178 53Q183 21 198 7L198-1L153-1L112 0L67 0L67 8Q82 22 87 54Q92 86 92 133L94 417Q94 464 89 496Q84 528 69 542L69 550L175 550L329 268L482 550L602 550L602 542Z"  horiz-adv-x="669" vert-adv-y="1000"  />

      
      <glyph glyph-name="uni6e" unicode="&#x6e;" d="M486 542Q471 528 466 496Q461 464 461 417L459 132Q459 85 464 53Q469 21 484 7L484-1L439-1L399 0L354 0L354 8Q368 21 373.50 51Q379 81 379 126L173 395L172 132Q172 85 177 53Q182 21 197 7L197-1L152-1L112 0L67 0L67 8Q82 22 87 54Q92 86 92 133L94 417Q94 464 89 496Q84 528 69 542L69 550L174 550L380 279L381 417Q381 464 376 496Q371 528 356 542L356 550L486 550L486 542Z"  horiz-adv-x="553" vert-adv-y="1000"  />

      
      <glyph glyph-name="uni6f" unicode="&#x6f;" d="M510 276Q510 207 492 154Q474 101 443.50 65Q413 29 371 10.50Q329-8 281-8Q231-8 189 11.50Q147 31 116.50 67.50Q86 104 69 157Q52 210 52 276Q52 345 69.50 398Q87 451 118 487Q149 523 191 541.50Q233 560 281 560Q332 560 374 540.50Q416 521 446.50 484.50Q477 448 493.50 395Q510 342 510 276M281 71Q351 71 383 127Q415 183 415 276Q415 322 407 360Q399 398 382.50 425Q366 452 341 466.50Q316 481 281 481Q246 481 221 466.50Q196 452 179.50 425Q163 398 155 360Q147 322 147 276Q147 183 179 127Q211 71 281 71Z"  horiz-adv-x="562" vert-adv-y="1000"  />

      
      <glyph glyph-name="uni70" unicode="&#x70;" d="M474 399Q474 356 452 315.50Q430 275 391 243Q352 211 299.50 192Q247 173 187 174L187 133Q187 86 192 54Q197 22 212 8L212 0L67 0L67 8Q82 22 87 54Q92 86 92 133L94 417Q94 464 89 496Q84 528 69 542L69 550L302 550Q342 550 374 538Q406 526 428.50 505Q451 484 462.50 456.50Q474 429 474 399M189 471L188 254Q236 253 270.50 266Q305 279 328 300.50Q351 322 362 348Q373 374 373 399Q373 429 352 450Q331 471 278 471L189 471Z"  horiz-adv-x="515" vert-adv-y="1000"  />

      
      <glyph glyph-name="uni71" unicode="&#x71;" d="M461-14Q471-14 472-8L473-8L473-95Q446-95 424.50-87.50Q403-80 386.50-67.50Q370-55 358-38Q346-21 336-2Q310-8 281-8Q231-8 189 11Q147 30 116.50 66Q86 102 69 155Q52 208 52 276Q52 347 69.50 400.50Q87 454 118 489.50Q149 525 191 542.50Q233 560 281 560Q332 560 374 541Q416 522 446.50 486Q477 450 493.50 397Q510 344 510 276Q510 185 482 123.50Q454 62 406 29Q417 12 430.50 1Q444-10 461-14M281 481Q246 481 221 466.50Q196 452 179.50 425Q163 398 155 360Q147 322 147 276Q147 256 148.50 239Q150 222 152 205Q167 220 188 229.50Q209 239 235 239Q263 239 284 227Q305 215 320.50 196Q336 177 347.50 153.50Q359 130 368 107Q392 134 403.50 177Q415 220 415 276Q415 322 407 360Q399 398 382.50 425Q366 452 341 466.50Q316 481 281 481M176 132Q210 71 281 71Q288 71 294 71.50Q300 72 306 73Q300 91 293 108Q286 125 277 137.50Q268 150 256.50 157.50Q245 165 229 165Q209 165 196 155Q183 145 176 132Z"  horiz-adv-x="562" vert-adv-y="1000"  />

      
      <glyph glyph-name="uni72" unicode="&#x72;" d="M420 124Q439 82 455 52Q471 22 486 8L486 0L337 0L337 8Q352 22 345 51.50Q338 81 319 124L289 194Q241 180 187 180L187 133Q187 86 192 54Q197 22 212 8L212 0L67 0L67 8Q82 22 87 54Q92 86 92 133L94 417Q94 464 89 496Q84 528 69 542L69 550L302 550Q342 550 374 538Q406 526 428 505.50Q450 485 461.50 458Q473 431 473 401Q473 352 446.50 308.50Q420 265 373 233L420 124L420 124M188 262Q236 260 270.50 271.50Q305 283 327.50 302.50Q350 322 361 347Q372 372 372 399Q372 429 353 450Q334 471 283 471L189 471L188 262L188 262Z"  horiz-adv-x="539" vert-adv-y="1000"  />

      
      <glyph glyph-name="uni73" unicode="&#x73;" d="M191-10Q169-10 152-6.50Q135-3 121.50 1.50Q108 6 98.50 9.50Q89 13 82 13Q71 13 63 0L55 0L50 141L58 140Q63 129 74.50 116.50Q86 104 103.50 93.50Q121 83 142.50 76Q164 69 189 69Q214 69 233.50 76.50Q253 84 266 97Q279 110 286 126Q293 142 293 159Q293 180 283.50 195Q274 210 258 221Q242 232 221.50 241.50Q201 251 179 261Q153 273 130.50 287Q108 301 90.50 319.50Q73 338 63 362Q53 386 53 416Q53 480 100.50 520Q148 560 242 560Q274 560 295 555.50Q316 551 329 550Q343 550 352 562L360 562L366 434L358 434Q346 453 313.50 467Q281 481 241 481Q190 481 168.50 463Q147 445 147 419Q147 402 154.50 390Q162 378 175.50 368.50Q189 359 207.50 350Q226 341 247 332Q310 306 348.50 267.50Q387 229 387 166Q387 126 371.50 93.50Q356 61 329 38Q302 15 266.50 2.50Q231-10 191-10Z"  horiz-adv-x="431" vert-adv-y="1000"  />

      
      <glyph glyph-name="uni74" unicode="&#x74;" d="M273 132Q273 85 278 53Q283 21 298 7L298-1L253-1L198 0L153 0L153 8Q168 22 173 54Q178 86 178 133L180 471L173 471Q126 471 93.50 466.50Q61 462 46 448L38 449L42 494L48 551L275 550L400 549L406 492L410 448L402 447Q387 461 354.50 465.50Q322 470 275 470L273 132Z"  horiz-adv-x="448" vert-adv-y="1000"  />

      
      <glyph glyph-name="uni75" unicode="&#x75;" d="M381 417Q381 464 376 496Q371 528 356 542L356 550L486 550L486 542Q471 528 466 496Q461 464 461 417L461 171Q461 123 444 90Q427 57 400 37Q373 17 339.50 8.50Q306 0 273 0Q242 0 207.50 9Q173 18 144.50 38Q116 58 98 91Q80 124 80 171L81 417Q82 464 77 496Q72 528 57 542L57 550L202 550L202 542Q187 528 182 496Q177 464 176 417L175 174Q175 145 185.50 126.50Q196 108 212 97.50Q228 87 246.50 83Q265 79 281 79Q297 79 314.50 83Q332 87 347 97.50Q362 108 371.50 126Q381 144 381 173L381 417L381 417Z"  horiz-adv-x="543" vert-adv-y="1000"  />

      
      <glyph glyph-name="uni76" unicode="&#x76;" d="M498 542Q483 528 469.50 497Q456 466 442 421L318-1L220-1L90 422Q76 467 63 497.50Q50 528 35 542L35 550L184 550L184 542Q169 528 172.50 497.50Q176 467 190 422L276 137L359 421Q372 466 375 497Q378 528 363 542L363 550L498 550L498 542Z"  horiz-adv-x="532" vert-adv-y="1000"  />

      
      <glyph glyph-name="uni77" unicode="&#x77;" d="M755 542Q740 528 726.50 497Q713 466 699 421L575 0L486 0L393 323L301 0L210 0L89 421Q76 466 63 497Q50 528 35 542L35 550L182 550L182 542Q167 528 170.50 497Q174 466 188 421L263 165L350 468Q331 523 311 542L311 550L460 550L460 542Q445 528 448.50 497Q452 466 465 421L539 158L616 421Q629 466 632 497Q635 528 620 542L620 550L755 550L755 542Z"  horiz-adv-x="789" vert-adv-y="1000"  />

      
      <glyph glyph-name="uni78" unicode="&#x78;" d="M393 119Q416 78 435.50 49.50Q455 21 470 7L470-1L307-1L307 7Q322 21 313.50 49.50Q305 78 283 120L241 198L196 118Q173 77 163 49Q153 21 168 7L168-1L35-1L35 7Q50 21 68.50 49.50Q87 78 109 119L197 281L116 430Q70 514 39 542L39 550L203 550L203 542Q188 528 196 499.50Q204 471 227 429L266 357L306 430Q328 472 337.50 500Q347 528 332 542L332 550L468 550L468 542Q453 528 434.50 499.50Q416 471 393 430L309 275L393 119L393 119Z"  horiz-adv-x="513" vert-adv-y="1000"  />

      
      <glyph glyph-name="uni79" unicode="&#x79;" d="M467 546Q449 529 426 484L303 245L302 132Q302 85 307 53Q312 21 327 7L327-1L282-1L222 0L177 0L177 8Q192 22 197 54Q202 86 202 133L203 248L103 429Q80 470 61.50 498.50Q43 527 28 541L28 549L188 549L188 541Q173 527 181.50 498.50Q190 470 211 428L262 327L310 427Q330 469 337.50 498.50Q345 528 330 542L330 550L467 550L467 546Z"  horiz-adv-x="501" vert-adv-y="1000"  />

      
      <glyph glyph-name="uni7a" unicode="&#x7a;" d="M400 101L394 57L388 0L52 0L52 79L286 471L185 471Q138 471 105.50 466.50Q73 462 58 448L50 449L54 493L59 550L398 550L398 471L167 79L290 79Q328 79 354.50 83.50Q381 88 393 102L400 101Z"  horiz-adv-x="452" vert-adv-y="1000"  />

      
      <glyph glyph-name="uni7b" unicode="&#x7b;" d="M293-100Q251-100 216.50-94.50Q182-89 157.50-71.50Q133-54 119-22.50Q105 9 105 61Q105 90 106.50 112Q108 134 109.50 152Q111 170 112.50 185Q114 200 114 214Q114 229 109 242.50Q104 256 96 267Q88 278 76 284.50Q64 291 51 291L51 369Q64 369 76 375.50Q88 382 96 393Q104 404 109 417.50Q114 431 114 446Q114 478 109.50 513.50Q105 549 105 603Q105 653 119 684Q133 715 157.50 732Q182 749 216.50 754.50Q251 760 293 760L293 690Q268 690 247.50 687Q227 684 212.50 676Q198 668 190 652.50Q182 637 182 612Q182 595 183.50 574Q185 553 187 530.50Q189 508 190 486.50Q191 465 191 449Q190 407 174.50 375Q159 343 121 333L121 327Q159 317 174.50 285Q190 253 191 211Q191 196 189.50 175.50Q188 155 186.50 133Q185 111 183.50 89Q182 67 182 48Q182 23 190 7.50Q198-8 212.50-16Q227-24 247.50-27Q268-30 293-30L293-100L293-100Z"  horiz-adv-x="344" vert-adv-y="1000"  />

      
      <glyph glyph-name="uni7c" unicode="&#x7c;" d="M113 760L113-94L40-94L40 760L113 760Z"  horiz-adv-x="153" vert-adv-y="1000"  />

      
      <glyph glyph-name="uni7d" unicode="&#x7d;" d="M51-30Q76-30 96.50-27Q117-24 131.50-16Q146-8 154 7.50Q162 23 162 48Q162 67 160.50 89Q159 111 157.50 133Q156 155 154.50 175.50Q153 196 153 211Q154 253 169.50 285Q185 317 223 327L223 333Q185 343 169.50 375Q154 407 153 449Q153 465 154 486.50Q155 508 157 530.50Q159 553 160.50 574Q162 595 162 612Q162 637 154 652.50Q146 668 131.50 676Q117 684 96.50 687Q76 690 51 690L51 760Q93 760 127.50 754.50Q162 749 186.50 732Q211 715 225 684Q239 653 239 603Q239 549 234.50 513.50Q230 478 230 446Q230 431 235 417.50Q240 404 248 393Q256 382 267.50 375.50Q279 369 293 369L293 291Q279 291 267.50 284.50Q256 278 248 267Q240 256 235 242.50Q230 229 230 214Q230 200 231.50 185Q233 170 234.50 152Q236 134 237.50 112Q239 90 239 61Q239 9 225-22.50Q211-54 186.50-71.50Q162-89 127.50-94.50Q93-100 51-100L51-30Z"  horiz-adv-x="344" vert-adv-y="1000"  />

      
      <glyph glyph-name="uni7e" unicode="&#x7e;" d="M450 348Q452 312 442.50 287.50Q433 263 416 248Q399 233 377 226.50Q355 220 333 220Q300 220 275.50 230Q251 240 230.50 251.50Q210 263 191.50 273Q173 283 152 283Q126 283 117.50 267.50Q109 252 109 225L40 225Q40 263 51 287.50Q62 312 78.50 326.50Q95 341 115.50 346.50Q136 352 155 352Q184 352 207 342.50Q230 333 250 321Q270 309 289.50 299.50Q309 290 332 290Q359 290 370 303.50Q381 317 381 348L450 348Z"  horiz-adv-x="490" vert-adv-y="1000"  />

      
      <glyph glyph-name="uni20AC" unicode="&#x20AC;" d="M378 72Q405 72 422.50 76Q440 80 451.50 86.50Q463 93 470 100.50Q477 108 482 116L490 116L486-3L479-3Q472 4 461 4Q447 4 425.50-2Q404-8 373-8Q336-8 297 3.50Q258 15 223 39.50Q188 64 160 101.50Q132 139 119 190L40 190L40 243L109 243Q108 251 108 259.50Q108 268 108 276Q108 287 108.50 297.50Q109 308 110 318L40 318L40 371L121 371Q135 420 163 456Q191 492 225.50 515Q260 538 299 549Q338 560 374 560Q410 560 428 557.50Q446 555 459 555Q467 555 471 556.50Q475 558 479 563L486 563L490 439L482 439Q471 456 449.50 468.50Q428 481 381 481Q324 481 282 452Q240 423 220 371L406 371L406 318L207 318Q204 298 204 276Q204 268 204.50 259.50Q205 251 206 243L352 243L352 190L218 190Q237 136 279 104Q321 72 378 72Z"  horiz-adv-x="530" vert-adv-y="1000"  />

      
      <glyph glyph-name="uni201A" unicode="&#x201A;" d="M101 0Q124 0 138.50-16Q153-32 153-61Q153-71 150.50-85.50Q148-100 139.50-113.50Q131-127 116.50-136.50Q102-146 78-146L78-127Q102-122 109-103Q106-104 99-104Q78-104 64.50-90Q51-76 51-52Q51-27 65-13.50Q79 0 101 0Z"  horiz-adv-x="204" vert-adv-y="1000"  />

      
      <glyph glyph-name="uni201E" unicode="&#x201E;" d="M101 94Q124 94 138.50 78Q153 62 153 33Q153 22 150.50 7.50Q148-7 139.50-20Q131-33 116.50-42.50Q102-52 78-52L78-33Q102-28 109-9Q106-10 99-10Q78-10 64.50 4Q51 18 51 42Q51 67 65 80.50Q79 94 101 94M249 94Q272 94 286.50 78Q301 62 301 33Q301 22 298.50 7.50Q296-7 287.50-20Q279-33 264.50-42.50Q250-52 226-52L226-33Q250-28 257-9Q254-10 247-10Q226-10 212.50 4Q199 18 199 42Q199 67 213 80.50Q227 94 249 94Z"  horiz-adv-x="352" vert-adv-y="1000"  />

      
      <glyph glyph-name="uni2026" unicode="&#x2026;" d="M103-10Q80-10 65.50 3.50Q51 17 51 42Q50 67 65 80Q80 93 103 93Q125 93 139.50 80Q154 67 154 42Q154 17 139.50 3.50Q125-10 103-10M298-10Q275-10 260.50 3.50Q246 17 246 42Q245 67 260 80Q275 93 298 93Q320 93 334.50 80Q349 67 349 42Q349 17 334.50 3.50Q320-10 298-10M485-10Q462-10 447.50 3.50Q433 17 433 42Q432 67 447 80Q462 93 485 93Q507 93 521.50 80Q536 67 536 42Q536 17 521.50 3.50Q507-10 485-10Z"  horiz-adv-x="587" vert-adv-y="1000"  />

      
      <glyph glyph-name="uni2020" unicode="&#x2020;" d="M351 627L351 509L343 509Q330 523 302 528Q274 533 232 534L232 39Q232-8 237-40Q242-72 257-86L257-94L134-94L134-86Q149-72 154-40Q159-8 159 39L159 534Q117 533 89 528Q61 523 48 509L40 509L40 554L41 582L41 627L49 627Q62 613 90 608Q118 603 159 602L159 627Q159 674 154 706Q149 738 134 752L134 760L257 760L257 752Q242 738 237 706Q232 674 232 627L232 602Q274 603 302 608Q330 613 343 627L351 627Z"  horiz-adv-x="391" vert-adv-y="1000"  />

      
      <glyph glyph-name="uni2021" unicode="&#x2021;" d="M351 627L351 509L343 509Q330 523 302 528Q274 533 232 534L232 164Q274 165 302 170Q330 175 343 189L351 189L351 71L343 71Q330 85 302 90Q274 95 232 96L232 39Q232-8 237-40Q242-72 257-86L257-94L134-94L134-86Q149-72 154-40Q159-8 159 39L159 96Q117 95 89 90Q61 85 48 71L40 71L40 116L41 144L41 189L49 189Q62 175 90 170Q118 165 159 164L159 534Q117 533 89 528Q61 523 48 509L40 509L40 554L41 582L41 627L49 627Q62 613 90 608Q118 603 159 602L159 627Q159 674 154 706Q149 738 134 752L134 760L257 760L257 752Q242 738 237 706Q232 674 232 627L232 602Q274 603 302 608Q330 613 343 627L351 627Z"  horiz-adv-x="391" vert-adv-y="1000"  />

      
      <glyph glyph-name="uni2030" unicode="&#x2030;" d="M420 569L479 569L251-2L192-2L420 569M159 267Q102 267 71 307Q40 347 40 413Q40 482 72.50 520.50Q105 559 159 559Q216 559 246 519Q276 479 276 413Q276 343 244 305Q212 267 159 267M159 322Q188 322 201 346Q214 370 214 413Q214 455 201 479.50Q188 504 159 504Q130 504 116.50 479.50Q103 455 103 413Q103 370 116.50 346Q130 322 159 322M512-10Q455-10 424 30Q393 70 393 136Q393 205 425.50 243.50Q458 282 512 282Q569 282 599 242Q629 202 629 136Q629 66 597 28Q565-10 512-10M812-10Q756-10 724.50 30Q693 70 693 136Q693 205 725.50 243.50Q758 282 812 282Q869 282 899.50 242Q930 202 930 136Q930 66 898 28Q866-10 812-10M512 45Q541 45 554 69Q567 93 567 136Q567 178 554 202Q541 226 512 226Q482 226 468.50 202Q455 178 455 136Q455 93 468.50 69Q482 45 512 45M812 45Q841 45 854 69Q867 93 867 136Q867 178 854 202Q841 226 812 226Q783 226 769.50 202Q756 178 756 136Q756 93 769.50 69Q783 45 812 45Z"  horiz-adv-x="970" vert-adv-y="1000"  />

      
      <glyph glyph-name="uni2039" unicode="&#x2039;" d="M311 481L149 269L311 57L213 57L51 269L213 481L311 481Z"  horiz-adv-x="362" vert-adv-y="1000"  />

      
      <glyph glyph-name="uni2018" unicode="&#x2018;" d="M106 705Q127 705 140 691Q153 677 153 653Q153 628 139 614.50Q125 601 103 601Q80 601 65.50 617Q51 633 51 662Q51 672 53.50 687Q56 702 64.50 715Q73 728 87.50 737.50Q102 747 126 747L126 728Q102 723 95 704Q98 705 106 705Z"  horiz-adv-x="204" vert-adv-y="1000"  />

      
      <glyph glyph-name="uni2019" unicode="&#x2019;" d="M101 747Q124 747 138.50 731Q153 715 153 686Q153 676 150.50 661.50Q148 647 139.50 633.50Q131 620 116.50 610.50Q102 601 78 601L78 621Q100 624 109 644Q106 643 99 643Q78 643 64.50 657.50Q51 672 51 696Q51 720 65 733.50Q79 747 101 747Z"  horiz-adv-x="204" vert-adv-y="1000"  />

      
      <glyph glyph-name="uni201C" unicode="&#x201C;" d="M106 705Q127 705 140 691Q153 677 153 653Q153 628 139 614.50Q125 601 103 601Q80 601 65.50 617Q51 633 51 662Q51 672 53.50 687Q56 702 64.50 715Q73 728 87.50 737.50Q102 747 126 747L126 728Q102 723 95 704Q98 705 106 705M254 705Q275 705 288 691Q301 677 301 653Q301 628 287 614.50Q273 601 251 601Q228 601 213.50 617Q199 633 199 662Q199 672 201.50 687Q204 702 212.50 715Q221 728 235.50 737.50Q250 747 274 747L274 728Q250 723 243 704Q246 705 254 705Z"  horiz-adv-x="352" vert-adv-y="1000"  />

      
      <glyph glyph-name="uni201D" unicode="&#x201D;" d="M101 747Q124 747 138.50 731Q153 715 153 686Q153 676 150.50 661.50Q148 647 139.50 633.50Q131 620 116.50 610.50Q102 601 78 601L78 621Q100 624 109 644Q106 643 99 643Q78 643 64.50 657.50Q51 672 51 696Q51 720 65 733.50Q79 747 101 747M249 747Q272 747 286.50 731Q301 715 301 686Q301 676 298.50 661.50Q296 647 287.50 633.50Q279 620 264.50 610.50Q250 601 226 601L226 621Q248 624 257 644Q254 643 247 643Q226 643 212.50 657.50Q199 672 199 696Q199 720 213 733.50Q227 747 249 747Z"  horiz-adv-x="352" vert-adv-y="1000"  />

      
      <glyph glyph-name="uni2022" unicode="&#x2022;" d="M132 209Q97 209 74 230.50Q51 252 51 290Q51 328 74 349.50Q97 371 132 371Q167 371 190 349.50Q213 328 213 290Q213 252 190 230.50Q167 209 132 209Z"  horiz-adv-x="264" vert-adv-y="1000"  />

      
      <glyph glyph-name="uni2013" unicode="&#x2013;" d="M551 338L551 261L51 261L51 338L551 338Z"  horiz-adv-x="602" vert-adv-y="1000"  />

      
      <glyph glyph-name="uni2014" unicode="&#x2014;" d="M701 338L701 261L51 261L51 338L701 338Z"  horiz-adv-x="752" vert-adv-y="1000"  />

      
      <glyph glyph-name="uni2122" unicode="&#x2122;" d="M265 550L271 478L263 478Q252 490 233.50 493.50Q215 497 188 498L187 342Q187 295 191.50 262.50Q196 230 211 217L211 209L102 209L102 217Q117 231 122 263Q127 295 127 342L129 499Q98 498 78.50 494.50Q59 491 48 479L40 479L46 551L265 550M662 542Q654 535 649 524Q644 513 641 494.50Q638 476 637 449Q636 422 636 383Q636 342 637 314Q638 286 640.50 266.50Q643 247 647.50 235.50Q652 224 660 217L660 209L552 209L552 217Q567 230 572 268Q577 306 577 383L578 449L482 275L388 445L387 385Q386 306 391 268Q396 230 411 217L411 209L312 209L312 217Q319 224 324 235.50Q329 247 331.50 266.50Q334 286 335.50 315Q337 344 337 386Q337 425 336 451.50Q335 478 332.50 496Q330 514 325.50 524.50Q321 535 313 542L313 550L388 550L483 376L578 550L662 550L662 542L662 542Z"  horiz-adv-x="702" vert-adv-y="1000"  />

      
      <glyph glyph-name="uni203A" unicode="&#x203A;" d="M311 269L149 57L51 57L213 269L51 481L149 481L311 269Z"  horiz-adv-x="362" vert-adv-y="1000"  />

      
      <glyph glyph-name="unia4" unicode="&#xa4;" d="M456 276Q456 201 421 154L480 95L436 51L375 112Q329 83 260 83Q192 83 144 111L84 51L40 95L98 153Q63 202 63 276Q63 345 94 393L40 447L84 491L138 437Q187 469 260 469Q334 469 381 436L436 491L480 447L425 392Q456 344 456 276M260 150Q314 150 341.50 182Q369 214 369 276Q369 336 341.50 367.50Q314 399 260 399Q206 399 178 368Q150 337 150 277Q150 215 178 182.50Q206 150 260 150Z"  horiz-adv-x="501" vert-adv-y="1000"  />

      
      <glyph glyph-name="unia6" unicode="&#xa6;" d="M40 760L113 760L113 450L40 450L40 760M113-94L40-94L40 290L113 290L113-94Z"  horiz-adv-x="135" vert-adv-y="1000"  />

      
      <glyph glyph-name="unia7" unicode="&#xa7;" d="M458 258Q458 211 433.50 180Q409 149 371 133Q393 112 406 86.50Q419 61 420 28Q420-11 405-40.50Q390-70 364-90Q338-110 303-120.50Q268-131 229-131Q204-131 186-127.50Q168-124 155-120Q142-116 132.50-112.50Q123-109 116-109Q104-109 97-121L89-121L83 19L91 19Q96 7 108-5.50Q120-18 137.50-28.50Q155-39 177.50-46Q200-53 226-53Q273-53 300-32Q327-11 326 21Q326 43 313.50 59Q301 75 281.50 87.50Q262 100 238 110.50Q214 121 190 132Q164 144 138 157Q112 170 91.50 188.50Q71 207 58 232Q45 257 45 292Q45 331 66.50 363.50Q88 396 126 416Q106 432 93 454Q80 476 80 508Q80 568 127.50 608.50Q175 649 268 649Q301 649 322 644.50Q343 640 357 639Q371 639 380 651L388 651L393 523L385 523Q373 542 340.50 556Q308 570 266 570Q216 570 195 551.50Q174 533 174 512Q174 495 186 482Q198 469 215 459Q232 449 251 442Q270 435 285 430Q319 418 350.50 403.50Q382 389 406 369Q430 349 444 322Q458 295 458 258M262 195Q270 192 278.50 188.50Q287 185 295 181Q333 186 351.50 205.50Q370 225 370 251Q370 278 354.50 296.50Q339 315 315.50 328Q292 341 265 350.50Q238 360 216 369L208 372Q170 366 150 346.50Q130 327 130 303Q130 283 142.50 267.50Q155 252 174.50 239Q194 226 217.50 215Q241 204 262 195Z"  horiz-adv-x="503" vert-adv-y="1000"  />

      
      <glyph glyph-name="unia9" unicode="&#xa9;" d="M341-24Q273-24 217.50-2.50Q162 19 122.50 58.50Q83 98 61.50 153.50Q40 209 40 277Q40 344 61.50 399.50Q83 455 122.50 494.50Q162 534 217.50 555.50Q273 577 341 577Q409 577 464.50 555.50Q520 534 559.50 494.50Q599 455 620.50 399.50Q642 344 642 277Q642 209 620.50 153.50Q599 98 559.50 58.50Q520 19 464.50-2.50Q409-24 341-24M341 19Q399 19 446.50 37.50Q494 56 528 90Q562 124 580.50 171.50Q599 219 599 277Q599 335 580.50 382Q562 429 528 463Q494 497 446.50 515.50Q399 534 341 534Q283 534 235.50 515.50Q188 497 154 463Q120 429 101.50 382Q83 335 83 277Q83 219 101.50 171.50Q120 124 154 90Q188 56 235.50 37.50Q283 19 341 19M349 94Q320 94 289 105Q258 116 232 138.50Q206 161 189 195Q172 229 172 276Q172 323 188.50 357.50Q205 392 231.50 414.50Q258 437 289.50 447.50Q321 458 351 458Q375 458 390 457Q405 456 414 456Q425 456 429 461L433 461L438 361L432 361Q424 372 405 380Q386 388 357 388Q311 388 284.50 357.50Q258 327 258 276Q258 228 284 196.50Q310 165 355 165Q390 165 408 175.50Q426 186 432 194L437 194L433 97L429 97Q426 99 422.50 100Q419 101 414 101Q405 101 387.50 97.50Q370 94 349 94Z"  horiz-adv-x="682" vert-adv-y="1000"  />

      
      <glyph glyph-name="uniab" unicode="&#xab;" d="M311 481L149 269L311 57L213 57L51 269L213 481L311 481M533 481L371 269L533 57L435 57L273 269L435 481L533 481Z"  horiz-adv-x="567" vert-adv-y="1000"  />

      
      <glyph glyph-name="uniad" unicode="&#xad;" d="M301 338L301 266L51 266L51 338L301 338Z"  horiz-adv-x="370" vert-adv-y="1000"  />

      
      <glyph glyph-name="uniae" unicode="&#xae;" d="M341 577Q409 577 464.50 555.50Q520 534 559.50 494.50Q599 455 620.50 399.50Q642 344 642 277Q642 209 620.50 153.50Q599 98 559.50 58.50Q520 19 464.50-2.50Q409-24 341-24Q273-24 217.50-2.50Q162 19 122.50 58.50Q83 98 61.50 153.50Q40 209 40 277Q40 344 61.50 399.50Q83 455 122.50 494.50Q162 534 217.50 555.50Q273 577 341 577M341 19Q399 19 446.50 37.50Q494 56 528 90Q562 124 580.50 171.50Q599 219 599 277Q599 335 580.50 382Q562 429 528 463Q494 497 446.50 515.50Q399 534 341 534Q283 534 235.50 515.50Q188 497 154 463Q120 429 101.50 382Q83 335 83 277Q83 219 101.50 171.50Q120 124 154 90Q188 56 235.50 37.50Q283 19 341 19M427 224Q444 180 459.50 150Q475 120 490 106L490 98L381 98L381 106Q396 120 387 148.50Q378 177 357 219Q343 216 328.50 214Q314 212 299 212Q299 173 304 145.50Q309 118 323 106L323 98L201 98L201 106Q216 120 221 152Q226 184 226 231L227 319Q227 366 222 398Q217 430 202 444L202 452L370 452Q422 452 451.50 422.50Q481 393 481 353Q481 323 463.50 295Q446 267 417 247L427 224L427 224M299 274Q326 273 346 279.50Q366 286 379 297Q392 308 398.50 322.50Q405 337 405 352Q405 370 393.50 381Q382 392 353 392L300 392L299 274L299 274Z"  horiz-adv-x="682" vert-adv-y="1000"  />

      
      <glyph glyph-name="unib0" unicode="&#xb0;" d="M146 361Q98 361 69.50 391.50Q41 422 40 478Q38 533 68.50 563.50Q99 594 146 594Q192 594 221.50 564Q251 534 251 478Q251 422 221.50 391.50Q192 361 146 361M146 412Q170 412 186 429Q202 446 202 478Q202 509 186 526Q170 543 146 543Q120 543 104 526Q88 509 90 478Q91 446 105.50 429Q120 412 146 412Z"  horiz-adv-x="273" vert-adv-y="1000"  />

      
      <glyph glyph-name="unib1" unicode="&#xb1;" d="M440 448L440 376L281 376L281 265L199 265L199 376L40 376L40 448L199 448L199 548L281 548L281 448L440 448M40 197L440 197L440 119L40 119L40 197Z"  horiz-adv-x="480" vert-adv-y="1000"  />

      
      <glyph glyph-name="unib6" unicode="&#xb6;" d="M268 702L306 702L304-94L247-93L202-93L202-85Q217-71 222-39Q227-7 227 40L228 342L220 342Q182 342 149.50 356Q117 370 92.50 394.50Q68 419 54 452Q40 485 40 522Q40 559 54 592Q68 625 92.50 650Q117 675 149.50 689Q182 703 220 703L268 703L268 702M489 694Q474 680 469 648Q464 616 464 569L462 39Q462-8 467-40Q472-72 487-86L487-94L442-94L385-93L387 702L489 702L489 694Z"  horiz-adv-x="440" vert-adv-y="1000"  />

      
      <glyph glyph-name="unib7" unicode="&#xb7;" d="M97 244Q77 244 64 256Q51 268 51 290Q51 312 64 324Q77 336 97 336Q117 336 130 324Q143 312 143 290Q143 268 130 256Q117 244 97 244Z"  horiz-adv-x="188" vert-adv-y="1000"  />

      
      <glyph glyph-name="unibb" unicode="&#xbb;" d="M311 269L149 57L51 57L213 269L51 481L149 481L311 269M533 269L371 57L273 57L435 269L273 481L371 481L533 269Z"  horiz-adv-x="567" vert-adv-y="1000"  />

      
      <glyph glyph-name="uni0411" unicode="&#x0411;" d="M464 668Q383 666 320 645Q257 624 213 588Q169 552 146 503.50Q123 455 123 398Q123 329 154 287.50Q185 246 234 246Q274 246 295.50 269.50Q317 293 318 321Q318 338 308.50 353Q299 368 277 368Q253 368 244 344Q239 348 234.50 356.50Q230 365 230 376Q230 398 248.50 414Q267 430 299 430Q342 430 368.50 399.50Q395 369 395 320Q395 288 383 259.50Q371 231 349.50 210Q328 189 298.50 176.50Q269 164 233 164Q191 164 154 182Q117 200 89.50 232Q62 264 46.50 307.50Q31 351 31 401Q31 471 59.50 536Q88 601 144 650.50Q200 700 283.50 729.50Q367 759 477 759L837 759L845 690L851 645L843 644Q827 658 794.50 662.50Q762 667 715 667L567 667L567 458Q633 449 694.50 418.50Q756 388 802.50 342Q849 296 877 236.50Q905 177 905 110Q905 55 886.50 11.50Q868-32 835-62Q802-92 756.50-108Q711-124 656-124L439-124L439-116Q454-102 459-70Q464-38 464 9L464 668M567 9Q567-2 567-12Q567-22 568-31L630-31Q802-31 802 120Q802 167 782 208Q762 249 729 280.50Q696 312 654 333.50Q612 355 567 364L567 9Z"  horiz-adv-x="973" vert-adv-y="1000"  />

      
      <glyph glyph-name="uni0416" unicode="&#x0416;" d="M459-16Q443-66 418-109Q393-152 361-182.50Q329-213 289-230Q249-247 203-245Q163-244 128-228.50Q93-213 67.50-186.50Q42-160 28-124.50Q14-89 16-47Q17-14 29 17Q41 48 62 71.50Q83 95 112 108.50Q141 122 177 121Q208 120 230 110Q252 100 265.50 84.50Q279 69 285 51Q291 33 291 15Q289-17 272.50-40Q256-63 226-62Q198-60 195-41Q210-39 219.50-29.50Q229-20 230-3Q231 17 217.50 30Q204 43 179 44Q141 45 120 19.50Q99-6 98-42Q97-61 103-80.50Q109-100 121.50-115.50Q134-131 154-141.50Q174-152 201-153Q261-155 307.50-97Q354-39 394 98L514 496L398 648Q369 685 345.50 711Q322 737 307 751L307 759L488 759L488 751Q473 737 484.50 710Q496 683 522 645L688 405L688 627Q688 675 683 706.50Q678 738 663 752L663 760L664 761L814 761L814 753Q799 739 794 707.50Q789 676 789 628L789 406L955 646Q981 684 992.50 711Q1004 738 989 752L989 760L1170 760L1170 752Q1155 738 1131.50 712Q1108 686 1079 649L963 497L1123-26Q1137-71 1150-101.50Q1163-132 1178-146L1178-154L1027-154L1027-146Q1042-132 1037.50-101.50Q1033-71 1019-26L886 395L789 268L789-21Q789-69 794-100.50Q799-132 814-146L814-154L664-154L663-147Q678-133 683-101.50Q688-70 688-22L688 267L591 394L459-16Z"  horiz-adv-x="1162" vert-adv-y="1000"  />

      
      <glyph glyph-name="uni0417" unicode="&#x0417;" d="M305 770Q353 770 389.50 757.50Q426 745 452 724Q478 703 493.50 674.50Q509 646 515 614Q521 582 517.50 548.50Q514 515 499 483Q488 459 468 436.50Q448 414 419 397Q484 370 525 322Q554 287 569 244Q584 201 589 151Q593 91 577.50 30.50Q562-30 525-79Q488-128 430-159.50Q372-191 293-192Q227-193 176-173Q125-153 89.50-119Q54-85 35.50-40Q17 5 17 55Q17 100 31.50 136.50Q46 173 71 199.50Q96 226 129 240.50Q162 255 198 255Q229 255 256.50 244.50Q284 234 304.50 216Q325 198 337 172.50Q349 147 349 117Q349 95 342 76Q335 57 322.50 43Q310 29 293 21Q276 13 257 13Q229 13 210 26.50Q191 40 191 63Q191 74 195.50 81Q200 88 206 92Q213 68 237 68Q255 68 266 83.50Q277 99 277 116Q277 143 256.50 160Q236 177 205 177Q185 177 167 169.50Q149 162 134.50 147Q120 132 111.50 109.50Q103 87 103 57Q103 18 118-12Q133-42 158.50-63Q184-84 217.50-95Q251-106 288-106Q344-106 384-84Q424-62 448.50-26Q473 10 483.50 54.50Q494 99 490 144Q487 184 472 221Q457 258 431 285.50Q405 313 368 329Q331 345 284 342Q267 341 251 340Q235 339 218 334L218 431Q235 426 252 425Q269 424 286 426Q315 428 338.50 439Q362 450 379.50 467.50Q397 485 407.50 506.50Q418 528 421 550Q424 574 418.50 597.50Q413 621 398 640.50Q383 660 358 672Q333 684 298 684Q268 686 245 678.50Q222 671 206.50 658Q191 645 183.50 629Q176 613 177 599Q178 580 186 567.50Q194 555 214 557Q234 557 242 582Q247 579 252 570.50Q257 562 257 550Q259 527 241.50 511.50Q224 496 195 494Q179 493 162.50 499Q146 505 133 517.50Q120 530 111 549.50Q102 569 101 596Q99 628 111.50 660Q124 692 150 717Q176 742 215 756.50Q254 771 305 770Z"  horiz-adv-x="605" vert-adv-y="1000"  />

      
      <glyph glyph-name="uni0418" unicode="&#x0418;" d="M464-34Q468-98 447-158Q426-218 390-258Q355-298 307.50-317.50Q260-337 209-337Q165-337 128-323Q91-309 64-284Q37-259 21.50-223.50Q6-188 6-146Q6-111 16-82Q26-53 45-32Q64-11 89.50 0.50Q115 12 147 12Q196 12 224.50-13.50Q253-39 253-81Q253-110 239-127.50Q225-145 201-145Q178-145 168-132Q180-128 185.50-119.50Q191-111 191-101Q191-84 180-73.50Q169-63 149-63Q120-63 104-84.50Q88-106 88-138Q88-184 119.50-215.50Q151-247 205-249Q275-251 320-194.50Q365-138 365-32L364 627Q364 675 359 706.50Q354 738 339 752L339 760L489 760L489 752Q474 738 469 706.50Q464 675 464 627L464 133L745 631Q744 653 743 671.50Q742 690 740 706Q735 738 720 752L720 760L870 760L870 752Q855 738 850 706.50Q845 675 845 627L845-16Q845-64 850-95.50Q855-127 870-141L870-149L720-149L720-141Q735-127 740-95.50Q745-64 745-16L745 461L464-34L464-34Z"  horiz-adv-x="926" vert-adv-y="1000"  />

      
      <glyph glyph-name="uni041B" unicode="&#x041B;" d="M607 657Q583 496 560 372.50Q537 249 514 155Q504 115 493 70.50Q482 26 467-17.50Q452-61 431-100Q410-139 381-169Q352-199 313-216.50Q274-234 223-234Q183-234 148-220Q113-206 86.50-180.50Q60-155 45-120Q30-85 30-43Q30-10 41 20Q52 50 72 73Q92 96 121 109.50Q150 123 186 123Q217 123 239 113.50Q261 104 275.50 89.50Q290 75 296.50 57Q303 39 303 21Q303-11 287-34.50Q271-58 241-58Q214-58 209-39Q224-37 233.50-26.50Q243-16 243 1Q243 21 229 33.50Q215 46 190 46Q152 46 132 19.50Q112-7 112-43Q112-62 118.50-81.50Q125-101 138-117Q151-133 171.50-143.50Q192-154 219-154Q256-155 283.50-137.50Q311-120 331.50-92Q352-64 366.50-27.50Q381 9 391.50 47.50Q402 86 410 123Q418 160 425 190Q446 275 468.50 389Q491 503 516 654L466 654Q445 655 420.50 651Q396 647 376.50 637Q357 627 347 609.50Q337 592 345 567Q349 554 358.50 544.50Q368 535 380 532Q392 529 404.50 533Q417 537 426 551Q441 529 435 510Q429 491 410.50 479.50Q392 468 366 466.50Q340 465 316 478Q299 484 285 498.50Q271 513 262.50 533.50Q254 554 252.50 577.50Q251 601 260 624Q264 642 278.50 664Q293 686 319.50 704.50Q346 723 385 735Q424 747 476 747L850 747L851 741Q836 727 831 695.50Q826 664 826 616L826 28Q826-20 831-51.50Q836-83 851-97L851-105L712-105L712-101Q720-93 723-75.50Q726-58 726-32L726 657L607 657Z"  horiz-adv-x="882" vert-adv-y="1000"  />

      
      <glyph glyph-name="uni041E" unicode="&#x041E;" d="M628 507Q665 481 685 423Q705 365 705 276Q705 173 678.50 92Q652 11 607.50-45.50Q563-102 504-131.50Q445-161 381-161Q316-161 255-133.50Q194-106 147-48Q100 10 71 98Q42 186 42 308Q42 424 69 511Q96 598 142.50 655.50Q189 713 251 741.50Q313 770 383 770Q443 770 489 750.50Q535 731 566.50 699.50Q598 668 614.50 627Q631 586 631 543Q631 525 628 507M381-73Q449-73 493-38.50Q537-4 563 49Q589 102 599.50 166Q610 230 610 289Q610 332 605.50 364.50Q601 397 593 422Q569 389 533.50 370Q498 351 456 351Q427 351 401.50 360.50Q376 370 357 386.50Q338 403 327.50 426.50Q317 450 317 478Q317 502 324.50 520Q332 538 344 550Q356 562 371.50 568Q387 574 403 574Q428 574 444 561.50Q460 549 460 529Q460 519 455.50 510.50Q451 502 446 499Q440 522 418 522Q400 522 391.50 509.50Q383 497 383 483Q383 457 402.50 441.50Q422 426 448 426Q465 426 481 433.50Q497 441 510 455.50Q523 470 530.50 491Q538 512 538 539Q538 571 526 597.50Q514 624 493 642.50Q472 661 442.50 671.50Q413 682 377 682Q311 682 266.50 649.50Q222 617 195 563.50Q168 510 156.50 443Q145 376 145 307Q145 239 156.50 171Q168 103 195.50 49Q223-5 268-39Q313-73 381-73Z"  horiz-adv-x="747" vert-adv-y="1000"  />

      
      <glyph glyph-name="uni041F" unicode="&#x041F;" d="M1214 732Q1169 703 1114.50 688Q1060 673 998 668L998-16Q998-64 1003-95.50Q1008-127 1023-141L1023-149L873-149L873-141Q888-127 893-95.50Q898-64 898-16L898 666Q855 666 812 668.50Q769 671 724 675Q697 677 670 679.50Q643 682 616 685L617-152Q617-200 622-231.50Q627-263 642-277L642-285L489-285L489-277Q504-263 509-231.50Q514-200 514-152L513 692Q447 694 384 685Q321 676 267 644Q204 607 169.50 554.50Q135 502 135 433Q135 399 143.50 371Q152 343 167.50 323Q183 303 204 292Q225 281 249 281Q289 281 310.50 304.50Q332 328 333 356Q333 373 323.50 388Q314 403 292 403Q268 403 259 379Q254 383 249.50 391.50Q245 400 245 411Q245 433 263.50 449Q282 465 314 465Q357 465 383.50 434.50Q410 404 410 355Q410 323 398 294.50Q386 266 364 244Q342 222 312.50 209.50Q283 197 247 197Q205 197 168.50 215.50Q132 234 105 266Q78 298 63 342Q48 386 48 436Q48 523 93 599Q138 675 223 724Q280 757 343.50 769.50Q407 782 473 782.50Q539 783 606.50 777Q674 771 739 768Q814 764 883 762.50Q952 761 1009 765.50Q1066 770 1107 783Q1148 796 1165 822L1172 825L1214 732Z"  horiz-adv-x="1105" vert-adv-y="1000"  />

      
      <glyph glyph-name="uni0422" unicode="&#x0422;" d="M816 736Q778 701 716.50 684Q655 667 582 667L582-99Q582-120 584-134.50Q586-149 593-155L593-159L471-159L471-155Q478-149 480-134.50Q482-120 482-99L482 668Q447 667 410.50 664.50Q374 662 339.50 656Q305 650 273.50 639Q242 628 215 610Q180 586 154.50 552Q129 518 122 459Q118 425 124 395Q130 365 143.50 342Q157 319 177.50 304.50Q198 290 222 288Q262 284 285.50 305.50Q309 327 313 354Q314 371 305.50 387Q297 403 276 406Q251 408 241 383Q236 388 232 396.50Q228 405 230 416Q232 438 251.50 453Q271 468 302 465Q345 460 369.50 428Q394 396 388 347Q385 315 371 288Q357 261 333.50 241.50Q310 222 279.50 212.50Q249 203 213 206Q171 210 136 231.50Q101 253 77 287Q53 321 41.50 365.50Q30 410 35 460Q43 548 97 617Q151 686 241 726Q279 743 329.50 749Q380 755 434 757Q488 759 541.50 759.50Q595 760 640.50 766Q686 772 719 786.50Q752 801 765 830L772 833L816 736Z"  horiz-adv-x="719" vert-adv-y="1000"  />

      
      <glyph glyph-name="uni0423" unicode="&#x0423;" d="M300 665L248 665Q227 666 202 662.50Q177 659 157 649Q137 639 126.50 622Q116 605 124 580Q128 567 138.50 557.50Q149 548 161.50 544Q174 540 187 544Q200 548 209 562Q224 540 217 520.50Q210 501 190.50 489Q171 477 144 474.50Q117 472 93 485Q76 491 61 506.50Q46 522 36.50 543.50Q27 565 25.50 590.50Q24 616 34 640Q38 662 54.50 683.50Q71 705 99 721.50Q127 738 167 748Q207 758 259 758L407 758L410 750Q400 732 406 700.50Q412 669 427 624L546 220L647 635Q659 678 660.50 708Q662 738 645 752L644 760L793 760L794 752Q768 722 743 635L589 20Q578-25 561-79Q544-133 515.50-180Q487-227 443.50-259.50Q400-292 336-294Q274-297 227-280Q180-263 147-233Q114-203 95-163Q76-123 71.50-81Q67-39 77 2.50Q87 44 111 76.50Q135 109 174 130.50Q213 152 266 154Q297 155 324.50 145Q352 135 372.50 116Q393 97 404.50 70.50Q416 44 416 13Q416-13 408-32.50Q400-52 387.50-65.50Q375-79 358.50-85.50Q342-92 325-92Q295-92 276-77.50Q257-63 257-41Q257-30 262-21Q267-12 272-8Q280-31 302-31Q322-31 330.50-18.50Q339-6 339 11Q338 39 319 56Q300 73 270 73Q226 73 200.50 50Q175 27 165.50-7Q156-41 163.50-80Q171-119 193.50-150Q216-181 253.50-198.50Q291-216 343-207Q380-201 405.50-179.50Q431-158 448.50-128Q466-98 476.50-63.50Q487-29 493 3L501 36L300 665Z"  horiz-adv-x="751" vert-adv-y="1000"  />

      
      <glyph glyph-name="uni0424" unicode="&#x0424;" d="M412 45L412 43Q344 50 281.50 80Q219 110 171 156.50Q123 203 94 263.50Q65 324 65 392Q65 447 83.50 490.50Q102 534 135 564Q168 594 213.50 610Q259 626 314 626L411 627L412 627Q412 675 406.50 706.50Q401 738 386 752L386 760L536 760L536 752Q521 738 516 706.50Q511 675 511 627L609 627Q664 627 709.50 611Q755 595 788 565Q821 535 839.50 491.50Q858 448 858 393Q858 325 829 264.50Q800 204 752 157.50Q704 111 641.50 81Q579 51 511 44L511 46L511-21Q512-97 490.50-156Q469-215 433.50-255Q398-295 351-315.50Q304-336 253-336Q209-336 172-322Q135-308 108-283Q81-258 65.50-222.50Q50-187 50-145Q50-110 60-81Q70-52 89-31Q108-10 133.50 1.50Q159 13 191 13Q240 13 268.50-13Q297-39 297-80Q297-109 283-126.50Q269-144 245-144Q234-144 225.50-141Q217-138 212-131Q224-127 229.50-118.50Q235-110 235-100Q235-83 224-72.50Q213-62 193-62Q164-62 148-83.50Q132-105 132-137Q132-183 163.50-214.50Q195-246 249-248Q284-249 313.50-235Q343-221 364-193Q385-165 397-124.50Q409-84 411-31L412 45M511 534L511 137Q557 144 600.50 165Q644 186 678.50 218Q713 250 734 292Q755 334 755 383Q755 534 582 534L511 534M341 533Q168 533 168 382Q168 333 189 291Q210 249 244.50 217Q279 185 322.50 164Q366 143 412 136L412 533L341 533Z"  horiz-adv-x="898" vert-adv-y="1000"  />

      
      <glyph glyph-name="uni0425" unicode="&#x0425;" d="M371 634Q354 677 338 707Q322 737 307 751L307 759L459 759L459 751Q444 737 450.50 707Q457 677 475 634L563 431L647 635Q665 678 671 708Q677 738 662 752L662 760L816 760L816 752Q801 738 784 708Q767 678 749 635L621 325L760-19Q777-62 793-92Q809-122 824-136L824-144L672-144L672-136Q687-122 680.50-92Q674-62 656-19L557 226Q513 93 467-1Q421-95 370-152Q334-193 292.50-211.50Q251-230 209-230Q169-230 134-216.50Q99-203 73-178.50Q47-154 32-119.50Q17-85 17-43Q17-10 28.50 20Q40 50 61 73Q82 96 111.50 109.50Q141 123 177 123Q208 123 230 113.50Q252 104 266.50 89.50Q281 75 287.50 57Q294 39 294 21Q294-11 278-34.50Q262-58 232-58Q205-58 200-39Q215-37 224.50-26.50Q234-16 234 1Q234 21 220 33.50Q206 46 181 46Q143 46 121 19.50Q99-7 99-43Q99-90 122.50-115.50Q146-141 179.50-147Q213-153 250-139Q287-125 315-91Q335-67 355-30.50Q375 6 397 56.50Q419 107 444 173.50Q469 240 499 325L371 634Z"  horiz-adv-x="806" vert-adv-y="1000"  />

      
      <glyph glyph-name="uni0426" unicode="&#x0426;" d="M613 759L613 751Q598 737 593 705.50Q588 674 588 626L588-66L868-66L869 627Q867 675 863 706.50Q859 738 844 752L844 760L994 760L994 752Q979 738 974 706.50Q969 675 969 627L969-62L1069-62L1068-146Q1029-167 1006-193Q983-219 973.50-244Q964-269 966-289.50Q968-310 979-319Q989-327 1004.50-326.50Q1020-326 1032.50-319Q1045-312 1050.50-299Q1056-286 1047-270Q1053-268 1063-270Q1073-272 1082-279Q1099-293 1098.50-320Q1098-347 1079-370Q1068-383 1050.50-392.50Q1033-402 1012-405Q991-408 968.50-403Q946-398 926-381Q902-362 891-332.50Q880-303 882.50-271.50Q885-240 900-208.50Q915-177 943-153L463-154L463-146Q478-132 483-100.50Q488-69 488-21L488 668Q401 668 335 647Q269 626 224 589.50Q179 553 156.50 503.50Q134 454 134 397Q134 328 165 286.50Q196 245 245 245Q285 245 306.50 268.50Q328 292 329 320Q329 337 319.50 352Q310 367 288 367Q264 367 255 343Q250 347 245.50 355.50Q241 364 241 375Q241 397 259.50 413Q278 429 310 429Q353 429 379.50 398.50Q406 368 406 319Q406 287 394 258.50Q382 230 360.50 209Q339 188 309.50 175.50Q280 163 244 163Q202 163 165.50 181Q129 199 103 231Q77 263 62 306.50Q47 350 47 400Q47 470 77 535Q107 600 164 649.50Q221 699 302.50 728.50Q384 758 488 758L613 759Z"  horiz-adv-x="1093" vert-adv-y="1000"  />

      
      <glyph glyph-name="uni0427" unicode="&#x0427;" d="M538 751Q523 737 518 705.50Q513 674 513 626L513 472Q513 439 525.50 416.50Q538 394 556 380.50Q574 367 595 361Q616 355 633 355Q649 355 675 357.50Q701 360 726 372.50Q751 385 770.50 413Q790 441 794 492L794 627Q794 675 789 706.50Q784 738 769 752L769 760L919 760L919 752Q904 738 899 706.50Q894 675 894 627L894-16Q894-64 899-95.50Q904-127 919-141L919-149L769-149L769-141Q784-127 789-95.50Q794-64 794-16L794 309Q765 278 722 266.50Q679 255 632 255Q600 255 562 265.50Q524 276 491 300Q458 324 435.50 363Q413 402 413 460L413 677Q355 674 299.50 655Q244 636 201 602Q158 568 132 519.50Q106 471 106 410Q106 341 137 299.50Q168 258 217 258Q257 258 278.50 281.50Q300 305 301 333Q301 350 291.50 365Q282 380 260 380Q236 380 227 356Q222 360 217.50 368.50Q213 377 213 388Q213 410 231.50 426Q250 442 282 442Q325 442 351.50 411.50Q378 381 378 332Q378 300 366 271.50Q354 243 332.50 222Q311 201 281.50 188.50Q252 176 216 176Q174 176 137.50 194Q101 212 75 244Q49 276 34 319.50Q19 363 19 413Q19 485 49 549Q79 613 136 662Q195 713 274 741Q295 748 324 752.50Q353 757 388 758.50Q423 760 461 760Q499 760 538 759L538 751Z"  horiz-adv-x="975" vert-adv-y="1000"  />

      
      <glyph glyph-name="uni0428" unicode="&#x0428;" d="M574-55L854-55L855 632Q853 680 849 711.50Q845 743 830 757L830 765L980 765L980 757Q965 743 960 711.50Q955 680 955 632L955-60L1234-60L1235 627Q1233 675 1229 706.50Q1225 738 1210 752L1210 760L1360 760L1360 752Q1345 738 1340 706.50Q1335 675 1335 627L1335-16Q1335-64 1340-97.50Q1345-131 1360-145L1360-153L449-153L449-145Q464-131 469-97.50Q474-64 474-16L474 677Q387 677 321 656Q255 635 210 598.50Q165 562 142.50 512.50Q120 463 120 406Q120 337 151 295.50Q182 254 231 254Q271 254 292.50 277.50Q314 301 315 329Q315 346 305.50 361Q296 376 274 376Q250 376 241 352Q236 356 231.50 364.50Q227 373 227 384Q227 406 245.50 422Q264 438 296 438Q339 438 365.50 407.50Q392 377 392 328Q392 296 380 267.50Q368 239 346.50 218Q325 197 295.50 184.50Q266 172 230 172Q188 172 151.50 190Q115 208 89 240Q63 272 48 315.50Q33 359 33 409Q33 479 63 544Q93 609 150 658.50Q207 708 288.50 737Q370 766 474 765L599 765L599 757Q584 743 579 711.50Q574 680 574 632L574-55Z"  horiz-adv-x="1392" vert-adv-y="1000"  />

      
      <glyph glyph-name="uni0429" unicode="&#x0429;" d="M609 764L609 756Q594 742 589 710.50Q584 679 584 631L584-55L864-55L865 632Q863 680 859 711.50Q855 743 840 757L840 765L990 765L990 757Q975 743 970 711.50Q965 680 965 632L964-60L1244-60L1245 627Q1243 675 1239 706.50Q1235 738 1220 752L1220 760L1370 760L1370 752Q1355 738 1350 706.50Q1345 675 1345 627L1345-56L1445-56L1445-146Q1406-167 1383-193Q1360-219 1350-244Q1340-269 1342-289.50Q1344-310 1355-319Q1365-327 1380.50-326.50Q1396-326 1408.50-319Q1421-312 1426.50-299Q1432-286 1423-270Q1429-268 1439-270Q1449-272 1458-279Q1475-293 1474.50-320Q1474-347 1455-370Q1444-383 1426.50-392.50Q1409-402 1388-405Q1367-408 1344.50-403Q1322-398 1302-381Q1278-362 1267-332.50Q1256-303 1258.50-271.50Q1261-240 1276-208.50Q1291-177 1319-153L459-153L459-145Q474-131 479-97.50Q484-64 484-16L484 676Q397 676 331 655Q265 634 220 597.50Q175 561 152.50 511.50Q130 462 130 405Q130 336 161 294.50Q192 253 241 253Q281 253 302.50 276.50Q324 300 325 328Q325 345 315.50 360Q306 375 284 375Q260 375 251 351Q246 355 241.50 363.50Q237 372 237 383Q237 405 255.50 421Q274 437 306 437Q349 437 375.50 406.50Q402 376 402 327Q402 295 390 266.50Q378 238 356.50 217Q335 196 305.50 183.50Q276 171 240 171Q198 171 161.50 189Q125 207 99 239Q73 271 58 314.50Q43 358 43 408Q43 478 73 543Q103 608 160 657.50Q217 707 298.50 736Q380 765 484 764L609 764Z"  horiz-adv-x="1471" vert-adv-y="1000"  />

      
      <glyph glyph-name="uni042A" unicode="&#x042A;" d="M578 9Q578-2 578-12Q578-22 579-31L641-31Q813-31 813 120Q813 167 793 208Q773 249 740 280.50Q707 312 665 333.50Q623 355 578 364L578 9M475 667Q401 665 340 645Q279 625 235.50 590Q192 555 168 507.50Q144 460 144 403Q144 334 175 292.50Q206 251 255 251Q295 251 316.50 274.50Q338 298 339 326Q339 343 329.50 358Q320 373 298 373Q274 373 265 349Q260 353 255.50 361.50Q251 370 251 381Q251 403 269.50 419Q288 435 320 435Q363 435 389.50 404.50Q416 374 416 325Q416 293 404 264.50Q392 236 370.50 215Q349 194 319.50 181.50Q290 169 254 169Q212 169 175 187Q138 205 111 237Q84 269 68.50 312.50Q53 356 53 406Q53 476 83.50 541Q114 606 172 655.50Q230 705 312 734Q394 763 498 762L601 762L601 754Q586 740 581 708.50Q576 677 576 629L576 459Q642 450 704.50 419Q767 388 813.50 342Q860 296 888 236.50Q916 177 916 110Q916 55 897.50 11.50Q879-32 846-62Q813-92 767.50-108Q722-124 667-124L450-124L450-116Q465-102 470-70Q475-38 475 9L475 661L475 667Z"  horiz-adv-x="989" vert-adv-y="1000"  />

      
      <glyph glyph-name="uni042B" unicode="&#x042B;" d="M178 626L178 448Q246 439 307.50 408.50Q369 378 415.50 332Q462 286 490 226.50Q518 167 518 100Q518 45 499.50 1.50Q481-42 448-72Q415-102 369.50-118Q324-134 269-134L52-134L52-126Q67-112 72-80Q77-48 77-1L77 627Q77 675 72 706.50Q67 738 52 752L52 760L202 760L202 752Q187 738 182 706.50Q177 675 177 627L178 626M732-1Q732-49 737-80.50Q742-112 757-126L757-134L607-134L607-126Q622-112 627-80.50Q632-49 632-1L632 628Q632 676 627 707.50Q622 739 607 753L607 761L757 761L757 753Q742 739 737 707.50Q732 676 732 628L732-1M180-1Q180-12 180-22Q180-32 181-41L243-41Q415-41 415 110Q415 157 395 198Q375 239 342 270.50Q309 302 267 323.50Q225 345 180 354L180-1Z"  horiz-adv-x="806" vert-adv-y="1000"  />

      
      <glyph glyph-name="uni042C" unicode="&#x042C;" d="M179 626L179 448Q247 439 308.50 408.50Q370 378 416.50 332Q463 286 491 226.50Q519 167 519 100Q519 45 500.50 1.50Q482-42 449-72Q416-102 370.50-118Q325-134 270-134L53-134L53-126Q68-112 73-80Q78-48 78-1L78 627Q78 675 73 706.50Q68 738 53 752L53 760L203 760L203 752Q188 738 183 706.50Q178 675 178 627L179 626M181-1Q181-12 181-22Q181-32 182-41L244-41Q416-41 416 110Q416 157 396 198Q376 239 343 270.50Q310 302 268 323.50Q226 345 181 354L181-1Z"  horiz-adv-x="573" vert-adv-y="1000"  />

      
      <glyph glyph-name="uni042D" unicode="&#x042D;" d="M234 581Q239 578 244 569.50Q249 561 249 549Q251 526 233.50 510.50Q216 495 187 493Q171 492 154.50 498Q138 504 125 516.50Q112 529 103 548.50Q94 568 93 595Q91 627 103 659Q115 691 140 716Q165 741 203.50 755.50Q242 770 293 769Q352 770 409.50 749.50Q467 729 513 678.50Q559 628 589.50 543.50Q620 459 625 333Q630 210 609.50 113Q589 16 547.50-51Q506-118 445-154Q384-190 308-192Q243-194 192.50-175.50Q142-157 106.50-124.50Q71-92 52-48Q33-4 32 46Q31 91 45 128Q59 165 83.50 192Q108 219 140.50 234Q173 249 209 249Q239 250 266 240.50Q293 231 313.50 213.50Q334 196 346 171.50Q358 147 359 117Q361 72 336 42Q311 12 273 11Q245 11 226 24Q207 37 206 60Q206 71 210.50 78Q215 85 220 90Q227 66 251 66Q269 67 279.50 82.50Q290 98 289 115Q288 142 268 158.50Q248 175 217 175Q198 175 179.50 167Q161 159 147 143.50Q133 128 124.50 105.50Q116 83 117 53Q118 15 132.50-14.50Q147-44 171.50-64.50Q196-85 228.50-95Q261-105 297-104Q349-102 390.50-74Q432-46 461.50 5Q491 56 507 128Q523 200 524 292L351 320Q305 327 273 326.50Q241 326 227 311L219 311L219 356L218 409L218 454L226 454Q240 440 272 430.50Q304 421 350 414L520 387Q511 456 494.50 509.50Q478 563 451 600.50Q424 638 385 659Q346 680 293 685Q264 685 240.50 676.50Q217 668 201 655.50Q185 643 176.50 627.50Q168 612 169 598Q170 579 178 566.50Q186 554 206 556Q226 556 234 581Z"  horiz-adv-x="662" vert-adv-y="1000"  />

      
      <glyph glyph-name="uni042E" unicode="&#x042E;" d="M543 383L636 395Q642 460 659 518Q700 649 783.50 713Q867 777 973 777Q1033 777 1079 757.50Q1125 738 1156.50 706.50Q1188 675 1204.50 634Q1221 593 1221 550Q1221 532 1218 514Q1255 488 1275 430.50Q1295 373 1295 283Q1295 180 1268.50 99Q1242 18 1197.50-38.50Q1153-95 1094-124.50Q1035-154 971-154Q921-154 874.50-138.50Q828-123 788-91Q748-59 715.50-10Q683 39 661 105Q647 147 640 196Q633 245 632 302L543 289L544-162Q544-210 549-241.50Q554-273 569-287L569-295L419-295L419-287Q434-273 439-241.50Q444-210 444-162L443 276L384 268L384 358L443 367L443 668Q356 668 290 647Q224 626 179 589.50Q134 553 111.50 503.50Q89 454 89 397Q89 328 120 286.50Q151 245 200 245Q240 245 261.50 268.50Q283 292 284 320Q284 337 274.50 352Q265 367 243 367Q219 367 210 343Q205 347 200.50 355.50Q196 364 196 375Q196 397 214.50 413Q233 429 265 429Q308 429 334.50 398.50Q361 368 361 319Q361 287 349 258.50Q337 230 315.50 209Q294 188 264.50 175.50Q235 163 199 163Q157 163 120.50 181Q84 199 58 231Q32 263 17 306.50Q2 350 2 400Q2 470 32 535Q62 600 119 649.50Q176 699 257.50 728.50Q339 758 443 758L568 759L568 751Q553 737 548 709Q543 681 543 633L543 383M971-66Q1038-66 1082.50-31.50Q1127 3 1153 56Q1179 109 1189.50 173Q1200 237 1200 296Q1200 339 1195.50 371.50Q1191 404 1183 429Q1159 396 1123.50 377Q1088 358 1046 358Q1017 358 991.50 367.50Q966 377 947 393.50Q928 410 917.50 433.50Q907 457 907 485Q907 509 914.50 527Q922 545 934 557Q946 569 961.50 575Q977 581 993 581Q1018 581 1034 568.50Q1050 556 1050 536Q1050 526 1045.50 517.50Q1041 509 1036 506Q1030 529 1008 529Q990 529 981.50 516.50Q973 504 973 490Q973 464 992.50 448.50Q1012 433 1038 433Q1055 433 1071 440.50Q1087 448 1100 462.50Q1113 477 1120.50 498Q1128 519 1128 546Q1128 578 1116 604.50Q1104 631 1083 649.50Q1062 668 1032.50 678.50Q1003 689 967 689Q918 689 880.50 670Q843 651 816 619Q789 587 772 543Q755 499 746 450Q744 440 743 430Q742 420 740 409L824 421L824 331L735 318L735 314Q735 246 746.50 178Q758 110 785.50 56Q813 2 858-32Q903-66 971-66Z"  horiz-adv-x="1333" vert-adv-y="1000"  />

      
      <glyph glyph-name="uni0430" unicode="&#x0430;" d="M451 132Q459 85 468 53.50Q477 22 492 8L492 0L345 0L345 8Q360 22 360.50 53.50Q361 85 353 132L350 148L158 118Q152 76 153 48.50Q154 21 168 8L168 0L35 0L35 8Q50 22 60 53.50Q70 85 78 132L126 418Q134 465 133.50 496.50Q133 528 118 542L118 550L384 550L451 132M339 223L300 473L216 473L170 196L339 223Z"  horiz-adv-x="527" vert-adv-y="1000"  />

      
      <glyph glyph-name="uni0431" unicode="&#x0431;" d="M187 471L187 376Q247 377 299.50 358Q352 339 391 307Q430 275 452 234.50Q474 194 474 151Q474 121 462.50 93.50Q451 66 428.50 45Q406 24 374 12Q342 0 302 0L68 0L68 8Q83 22 88 54Q93 86 93 133L92 417Q92 464 87 496Q82 528 67 542L67 550L415 550L424 448L416 448Q401 462 368.50 466.50Q336 471 289 471L187 471M278 79Q331 79 352 100Q373 121 373 151Q373 176 362 202Q351 228 328 249.50Q305 271 270.50 284Q236 297 188 296L188 79L278 79Z"  horiz-adv-x="515" vert-adv-y="1000"  />

      
      <glyph glyph-name="uni0432" unicode="&#x0432;" d="M403 318Q421 311 438 299Q455 287 468.50 269.50Q482 252 490 229.50Q498 207 498 179Q498 141 484.50 108Q471 75 446 51Q421 27 384 13.50Q347 0 301 0L67 0L67 8Q82 22 87 54Q92 86 92 133L93 417Q93 464 88 496Q83 528 68 542L68 550L322 550Q388 550 425.50 518Q463 486 463 429Q463 395 447.50 367.50Q432 340 403 318M188 471L188 316Q225 320 258 327.50Q291 335 315.50 347.50Q340 360 354 377.50Q368 395 368 418Q368 439 353 455Q338 471 296 471L188 471M280 79Q337 79 371 109.50Q405 140 405 188Q405 216 387.50 242Q370 268 332 280Q269 256 188 248L187 79L280 79Z"  horiz-adv-x="543" vert-adv-y="1000"  />

      
      <glyph glyph-name="uni0433" unicode="&#x0433;" d="M188 471L187 132Q187 85 192 53Q197 21 212 7L212-1L167-1L112 0L67 0L67 8Q82 22 87 54Q92 86 92 133L93 417Q93 464 88 496Q83 528 68 542L68 550L416 550L421 493L425 448L417 448Q402 462 369.50 466.50Q337 471 290 471L188 471Z"  horiz-adv-x="465" vert-adv-y="1000"  />

      
      <glyph glyph-name="uni0434" unicode="&#x0434;" d="M398 0L137 0L137-92L56-92Q56-68 54.50-43Q53-18 49 4.50Q45 27 39.50 44Q34 61 27 68L27 76L83 76L144 418Q152 466 151.50 497Q151 528 136 542L136 550L442 549L441 77L510 77L510 69Q502 62 496.50 44.50Q491 27 487.50 4.50Q484-18 482-43.50Q480-69 480-93L398-93L398 0M351 472L237 473L167 76L350 76L351 472Z"  horiz-adv-x="540" vert-adv-y="1000"  />

      
      <glyph glyph-name="uni0435" unicode="&#x0435;" d="M302 79Q344 79 374 83.50Q404 88 418 102L425 101L421 56L415 0L67 0L67 8Q82 22 87 54Q92 86 92 133L93 417Q93 464 88 496Q83 528 68 542L68 550L416 550L421 493L425 448L418 447Q405 461 377 466Q349 471 308 471L188 471L188 318L237 326Q276 334 304 343Q332 352 343 367L350 367L350 322L349 282L349 237L342 237Q330 252 302.50 252.50Q275 253 236 246L188 238L187 79L302 79Z"  horiz-adv-x="475" vert-adv-y="1000"  />

      
      <glyph glyph-name="uni0436" unicode="&#x0436;" d="M339 0L339 8Q354 22 359 53.50Q364 85 364 133L364 182L271 291L212 127Q196 82 191 52Q186 22 201 8L201 0L50 0L50 8Q65 22 79.50 52Q94 82 110 127L198 378L143 443Q113 478 88 503Q63 528 48 542L48 550L198 550L198 542Q183 528 196.50 502.50Q210 477 240 441L363 294L363 417Q363 465 358 496.50Q353 528 338 542L338 550L485 550L485 542Q470 528 465 496.50Q460 465 460 417L460 294L583 441Q613 477 626.50 502.50Q640 528 625 542L625 550L775 550L775 542Q760 528 735 503Q710 478 680 443L625 378L713 127Q729 82 743.50 52Q758 22 773 8L773 0L622 0L622 8Q637 22 632 52Q627 82 611 127L552 291L459 182L459 133Q459 85 464 53.50Q469 22 484 8L484 0L337 0L339 0Z"  horiz-adv-x="825" vert-adv-y="1000"  />

      
      <glyph glyph-name="uni0438" unicode="&#x0438;" d="M192 54Q197 22 212 8L212 0L67 0L67 8Q82 22 87 54Q92 86 92 133L93 417Q93 464 88 496Q83 528 68 542L68 550L213 550L213 542Q198 528 193 496Q188 464 188 417L187 207L386 465Q385 482 383 496Q378 528 363 542L363 550L508 550L508 542Q493 528 488 496Q483 464 483 417L483 133Q483 86 488 54Q493 22 508 8L508 0L362 0L362 8Q377 22 382 54Q387 86 387 133L387 333L188 79Q190 65 192 54Z"  horiz-adv-x="577" vert-adv-y="1000"  />

      
      <glyph glyph-name="uni0439" unicode="&#x0439;" d="M192 54Q197 22 212 8L212 0L67 0L67 8Q82 22 87 54Q92 86 92 133L93 417Q93 464 88 496Q83 528 68 542L68 550L213 550L213 542Q198 528 193 496Q188 464 188 417L187 207L386 465Q385 482 383 496Q378 528 363 542L363 550L508 550L508 542Q493 528 488 496Q483 464 483 417L483 133Q483 86 488 54Q493 22 508 8L508 0L362 0L362 8Q377 22 382 54Q387 86 387 133L387 333L188 79Q190 65 192 54M315 736Q317 741 324 745.50Q331 750 345 750Q376 749 393 731Q410 713 410 688Q410 670 402.50 654Q395 638 380 625.50Q365 613 342.50 605.50Q320 598 289 599Q257 597 233.50 604.50Q210 612 194 624.50Q178 637 170 653.50Q162 670 162 688Q162 713 179 731Q196 749 227 750Q241 750 248 745.50Q255 741 257 736Q243 734 233.50 725.50Q224 717 225 704Q226 687 245 678Q264 669 286.50 668.50Q309 668 328 677Q347 686 347 704Q347 717 338 725.50Q329 734 315 736Z"  horiz-adv-x="577" vert-adv-y="1000"  />

      
      <glyph glyph-name="uni043B" unicode="&#x043B;" d="M507 133Q506 99 507 78Q508 57 511 44Q514 31 519 23Q524 15 532 8L532 0L387 0L387 8Q402 22 407 53.50Q412 85 412 133L412 138L412 472L296 473Q292 356 279 271.50Q266 187 246 130Q223 64 194 32.50Q165 1 134-3Q83-9 56.50 10Q30 29 24 57Q18 86 27.50 108.50Q37 131 53 143Q69 155 87 156Q105 157 116 143Q99 137 94.50 125.50Q90 114 93 103.50Q96 93 105 87Q114 81 125 86Q135 88 145.50 105Q156 122 167 152Q183 197 196 266Q209 335 215 418Q219 473 215.50 500.50Q212 528 197 542L196 550L532 549L532 537Q517 523 512 491.50Q507 460 507 412L507 133Z"  horiz-adv-x="602" vert-adv-y="1000"  />

      
      <glyph glyph-name="uni043C" unicode="&#x043C;" d="M602 542Q587 528 582 496Q577 464 577 417L575 132Q575 85 580 53Q585 21 600 7L600-1L555-1L500 0L455 0L455 8Q470 22 475 54Q480 86 480 133L481 383L328 106L174 379L173 132Q173 85 178 53Q183 21 198 7L198-1L153-1L112 0L67 0L67 8Q82 22 87 54Q92 86 92 133L94 417Q94 464 89 496Q84 528 69 542L69 550L175 550L329 268L482 550L602 550L602 542Z"  horiz-adv-x="669" vert-adv-y="1000"  />

      
      <glyph glyph-name="uni043D" unicode="&#x043D;" d="M510 542Q495 528 490 496Q485 464 485 417L483 133Q483 86 488 54Q493 22 508 8L508 0L362 0L362 8Q377 22 382 54Q387 86 387 133L388 291L188 263L187 133Q187 86 192 54Q197 22 212 8L212 0L67 0L67 8Q82 22 87 54Q92 86 92 133L94 417Q94 464 89 496Q84 528 69 542L69 550L214 550L214 542Q199 528 194 496Q189 464 189 417L188 342L389 371L389 417Q389 464 384 496Q379 528 364 542L364 550L510 550L510 542Z"  horiz-adv-x="577" vert-adv-y="1000"  />

      
      <glyph glyph-name="uni043E" unicode="&#x043E;" d="M510 276Q510 207 492 154Q474 101 443.50 65Q413 29 371 10.50Q329-8 281-8Q231-8 189 11.50Q147 31 116.50 67.50Q86 104 69 157Q52 210 52 276Q52 345 69.50 398Q87 451 118 487Q149 523 191 541.50Q233 560 281 560Q332 560 374 540.50Q416 521 446.50 484.50Q477 448 493.50 395Q510 342 510 276M281 71Q351 71 383 127Q415 183 415 276Q415 322 407 360Q399 398 382.50 425Q366 452 341 466.50Q316 481 281 481Q246 481 221 466.50Q196 452 179.50 425Q163 398 155 360Q147 322 147 276Q147 183 179 127Q211 71 281 71Z"  horiz-adv-x="562" vert-adv-y="1000"  />

      
      <glyph glyph-name="uni043F" unicode="&#x043F;" d="M508 550L508 542Q493 528 488 496.50Q483 465 483 417L483 133Q483 85 488 53.50Q493 22 508 8L508 0L362 0L362 8Q377 22 382 53.50Q387 85 387 133L387 470L187 470L187 133Q187 85 192 53.50Q197 22 212 8L212 0L67 0L67 8Q82 22 87 53.50Q92 85 92 133L93 417Q93 465 88 496.50Q83 528 68 542L68 550L508 550Z"  horiz-adv-x="577" vert-adv-y="1000"  />

      
      <glyph glyph-name="uni0440" unicode="&#x0440;" d="M474 399Q474 356 452 315.50Q430 275 391 243Q352 211 299.50 192Q247 173 187 174L187 133Q187 86 192 54Q197 22 212 8L212 0L67 0L67 8Q82 22 87 54Q92 86 92 133L94 417Q94 464 89 496Q84 528 69 542L69 550L302 550Q342 550 374 538Q406 526 428.50 505Q451 484 462.50 456.50Q474 429 474 399M189 471L188 254Q236 253 270.50 266Q305 279 328 300.50Q351 322 362 348Q373 374 373 399Q373 429 352 450Q331 471 278 471L189 471Z"  horiz-adv-x="515" vert-adv-y="1000"  />

      
      <glyph glyph-name="uni0441" unicode="&#x0441;" d="M317-8Q273-8 226.50 8.50Q180 25 141 59.50Q102 94 77 148Q52 202 52 276Q52 351 77 404.50Q102 458 141 492.50Q180 527 227 543.50Q274 560 318 560Q354 560 372 557.50Q390 555 403 555Q411 555 415 556.50Q419 558 423 563L430 563L434 439L426 439Q415 456 393.50 468.50Q372 481 326 481Q286 481 253 466.50Q220 452 197 425.50Q174 399 161 361Q148 323 148 276Q148 231 160.50 193.50Q173 156 196.50 129Q220 102 252 87Q284 72 323 72Q350 72 367.50 76Q385 80 396.50 86.50Q408 93 414.50 100.50Q421 108 426 116L434 116L430-3L423-3Q416 4 405 4Q391 4 369.50-2Q348-8 317-8Z"  horiz-adv-x="493" vert-adv-y="1000"  />

      
      <glyph glyph-name="uni0442" unicode="&#x0442;" d="M273 132Q273 85 278 53Q283 21 298 7L298-1L253-1L198 0L153 0L153 8Q168 22 173 54Q178 86 178 133L177 471Q126 471 93.50 466.50Q61 462 46 448L38 449L42 494L48 551L400 549L406 492L410 448L402 447Q387 461 354.50 465.50Q322 470 274 470L273 132Z"  horiz-adv-x="448" vert-adv-y="1000"  />

      
      <glyph glyph-name="uni0443" unicode="&#x0443;" d="M306 129Q284 65 251 33Q218 1 186-1Q136-6 111 12Q86 30 79 59Q71 92 81 114.50Q91 137 107.50 149Q124 161 143 160.50Q162 160 174 146Q156 140 151.50 128.50Q147 117 151 107Q155 97 164 90.50Q173 84 184 89Q202 91 222 135L85 481Q73 502 63 517Q53 532 43 541L43 549L191 549L191 541Q175 525 185 491Q186 485 190.50 469.50Q195 454 204 425Q213 396 228.50 353.50Q244 311 268 251L339 428Q355 470 359.50 499.50Q364 529 349 543L347 551L484 549L484 545Q475 537 467 522Q459 507 450 484L306 129Z"  horiz-adv-x="518" vert-adv-y="1000"  />

      
      <glyph glyph-name="uni0444" unicode="&#x0444;" d="M323 0L323 8Q335 19 340 42Q345 65 347 98Q287 98 235 117Q183 136 144 167.50Q105 199 83 239.50Q61 280 61 323Q61 354 72.50 381.50Q84 409 106.50 430Q129 451 160.50 463Q192 475 233 475L344 475Q339 525 321 542L321 550L466 550L466 542Q448 525 443 475L554 475Q594 475 626 463Q658 451 680.50 430Q703 409 714.50 381.50Q726 354 726 323Q726 280 704 239.50Q682 199 643 167.50Q604 136 552 117Q500 98 440 98Q442 65 447 42Q452 19 464 8L464 0L319 0L323 0M625 323Q625 354 604 374.50Q583 395 530 395L439 395L439 178Q487 177 522 190.50Q557 204 580 225Q603 246 614 272.50Q625 299 625 323M162 323Q162 299 173 272.50Q184 246 207 225Q230 204 265 190.50Q300 177 348 178L348 395L257 395Q204 395 183 374.50Q162 354 162 323Z"  horiz-adv-x="776" vert-adv-y="1000"  />

      
      <glyph glyph-name="uni0446" unicode="&#x0446;" d="M68 0L68 8Q83 22 88 53.50Q93 85 93 133L92 417Q92 465 87 496.50Q82 528 67 542L67 550L212 550L212 542Q197 528 192 496.50Q187 465 187 417L187 80L387 80L387 417Q387 465 382 496.50Q377 528 362 542L362 550L508 550L508 542Q493 528 488 496.50Q483 465 483 417L483 77L554 77L554 69Q546 62 540 44.50Q534 27 530 3Q526-21 524-50.50Q522-80 524-111L442-111L442 0L68 0Z"  horiz-adv-x="612" vert-adv-y="1000"  />

      
      <glyph glyph-name="uni0447" unicode="&#x0447;" d="M388 417Q388 465 383 496.50Q378 528 363 542L363 550L508 550L508 542Q493 528 488 496.50Q483 465 483 417L483 133Q483 85 488 53.50Q493 22 508 8L508 0L362 0L362 8Q377 22 382 53.50Q387 85 387 133L387 238Q364 224 336.50 217Q309 210 283 210Q251 210 217.50 219Q184 228 156.50 248Q129 268 111.50 301Q94 334 94 381L94 417Q94 465 89 496.50Q84 528 69 542L69 550L214 550L214 542Q199 528 194 496.50Q189 465 189 417L189 384Q189 355 199 336.50Q209 318 224 307.50Q239 297 257 293Q275 289 291 289Q306 289 321.50 294Q337 299 351 310Q365 321 375 337.50Q385 354 388 378L388 417Z"  horiz-adv-x="585" vert-adv-y="1000"  />

      
      <glyph glyph-name="uni0448" unicode="&#x0448;" d="M815 0L80 0L80 8Q95 22 100 52Q105 82 105 130L104 414Q104 462 99 493.50Q94 525 79 539L79 547L224 547L224 539Q209 525 204 493.50Q199 462 199 414L199 77L399 77L399 414Q399 462 394 493.50Q389 525 374 539L374 550L519 550L519 542Q504 528 499 496.50Q494 465 494 417L494 80L694 80L694 417Q694 465 689 496.50Q684 528 669 542L669 550L815 550L815 542Q800 528 795 496.50Q790 465 790 417L790 130Q790 82 795 52Q800 22 815 8L815 0Z"  horiz-adv-x="886" vert-adv-y="1000"  />

      
      <glyph glyph-name="uni0449" unicode="&#x0449;" d="M80 8Q95 22 100 52Q105 82 105 130L104 414Q104 462 99 493.50Q94 525 79 539L79 547L224 547L224 539Q209 525 204 493.50Q199 462 199 414L199 77L399 77L399 414Q399 462 394 493.50Q389 525 374 539L374 550L519 550L519 542Q504 528 499 496.50Q494 465 494 417L494 80L694 80L694 417Q694 465 689 496.50Q684 528 669 542L669 550L815 550L815 542Q800 528 795 496.50Q790 465 790 417L790 77L861 77L861 69Q853 62 847 44.50Q841 27 837 3Q833-21 831-50.50Q829-80 831-111L749-111L749 0L80 0L80 8Z"  horiz-adv-x="919" vert-adv-y="1000"  />

      
      <glyph glyph-name="uni044A" unicode="&#x044A;" d="M343 550L343 542Q328 528 323 496.50Q318 465 318 417L318 376Q378 377 430.50 358Q483 339 522 307.50Q561 276 583 235Q605 194 605 151Q605 121 593.50 93.50Q582 66 559.50 45Q537 24 505 12Q473 0 433 0L199 0L199 8Q214 22 219 53.50Q224 85 224 133L224 469Q172 469 139.50 464.50Q107 460 92 446L84 447L88 492L94 549L343 550M409 79Q462 79 483 100Q504 121 504 151Q504 176 493 202.50Q482 229 459 250Q436 271 401.50 284Q367 297 319 296L319 79L409 79Z"  horiz-adv-x="646" vert-adv-y="1000"  />

      
      <glyph glyph-name="uni044B" unicode="&#x044B;" d="M474 151Q474 121 462.50 93.50Q451 66 428.50 45Q406 24 374 12Q342 0 302 0L68 0L68 8Q83 22 88 54Q93 86 93 133L92 417Q92 464 87 496Q82 528 67 542L67 550L212 550L212 542Q197 528 192 496Q187 464 187 417L187 376Q247 377 299.50 358Q352 339 391 307Q430 275 452 234.50Q474 194 474 151M278 79Q331 79 352 100Q373 121 373 151Q373 176 362 202Q351 228 328 249.50Q305 271 270.50 284Q236 297 188 296L188 79L278 79M637 133Q637 86 642 54Q647 22 662 8L662 0L517 0L517 8Q532 22 537 54Q542 86 542 133L542 417Q542 464 537 496Q532 528 517 542L517 550L662 550L662 542Q647 528 642 496Q637 464 637 417L637 133Z"  horiz-adv-x="732" vert-adv-y="1000"  />

      
      <glyph glyph-name="uni044C" unicode="&#x044C;" d="M474 151Q474 121 462.50 93.50Q451 66 428.50 45Q406 24 374 12Q342 0 302 0L68 0L68 8Q83 22 88 54Q93 86 93 133L92 417Q92 464 87 496Q82 528 67 542L67 550L212 550L212 542Q197 528 192 496Q187 464 187 417L187 376Q247 377 299.50 358Q352 339 391 307Q430 275 452 234.50Q474 194 474 151M278 79Q331 79 352 100Q373 121 373 151Q373 176 362 202Q351 228 328 249.50Q305 271 270.50 284Q236 297 188 296L188 79L278 79Z"  horiz-adv-x="515" vert-adv-y="1000"  />

      
      <glyph glyph-name="uni044E" unicode="&#x044E;" d="M704 275Q704 206 686 153Q668 100 637.50 64Q607 28 565 9.50Q523-9 475-9Q425-9 383 10.50Q341 30 310.50 66.50Q280 103 263 156Q247 204 246 263L186 263L185 133Q185 86 190 54Q195 22 210 8L210 0L65 0L65 8Q80 22 85 54Q90 86 90 133L91 417Q91 464 86 496Q81 528 66 542L66 550L212 550L212 542Q197 528 192 496Q187 464 187 417L187 342L250 342Q255 371 263 397Q281 450 312 486Q343 522 385 540.50Q427 559 475 559Q526 559 568 539.50Q610 520 640.50 483.50Q671 447 687.50 394Q704 341 704 275M475 70Q545 70 577 126Q609 182 609 275Q609 321 601 359Q593 397 576.50 424Q560 451 535 465.50Q510 480 475 480Q440 480 415 465.50Q390 451 373.50 424Q357 397 349 359Q341 321 341 275Q341 182 373 126Q405 70 475 70Z"  horiz-adv-x="762" vert-adv-y="1000"  />

      
      <glyph glyph-name="uni0412" unicode="&#x0412;" d="M464 411Q497 396 527.50 371Q558 346 582 310.50Q606 275 620.50 230Q635 185 635 130Q635 66 613 6.50Q591-53 549.50-98.50Q508-144 449-171.50Q390-199 315-199Q252-199 202-178.50Q152-158 117-122.50Q82-87 63-40.50Q44 6 44 57Q44 125 73.50 175Q103 225 151 251L152 615Q152 666 146.50 701.50Q141 737 125 751L125 760L373 760Q415 760 451 748Q487 736 514 713.50Q541 691 556.50 659.50Q572 628 572 589Q572 538 542 492Q512 446 464 411M253 667L252 414Q295 420 334.50 436Q374 452 404 475Q434 498 451.50 526Q469 554 469 584Q469 626 440.50 646.50Q412 667 370 667L253 667M312-115Q367-115 408.50-93.50Q450-72 477-36.50Q504-1 517.50 43.50Q531 88 531 133Q531 179 518.50 216.50Q506 254 484.50 283Q463 312 434 331.50Q405 351 372 361Q314 337 251 331L251 277L252 277Q287 277 318 266.50Q349 256 372 236Q395 216 408.50 188Q422 160 422 125Q422 96 412 71.50Q402 47 385.50 29.50Q369 12 347 2.50Q325-7 301-7Q263-7 238.50 14.50Q214 36 214 65Q214 85 225.50 97Q237 109 254 108Q252 89 265 76Q278 63 298 63Q321 63 335 81Q349 99 349 125Q349 160 323.50 181Q298 202 258 202Q231 202 207.50 192Q184 182 166 163Q148 144 137.50 117Q127 90 127 57Q127 19 141-12.50Q155-44 179.50-67Q204-90 238-102.50Q272-115 312-115Z"  horiz-adv-x="672" vert-adv-y="1000"  />

      
      </font>
</defs>
</svg>
